<?xml version="1.0" encoding="utf-8"?>
<svg xmlns="http://www.w3.org/2000/svg" xmlns:xlink="http://www.w3.org/1999/xlink" width="600" height="400" viewBox="0 0 2400 1600">
<defs>
  <clipPath id="clip700">
    <rect x="0" y="0" width="2400" height="1600"/>
  </clipPath>
</defs>
<path clip-path="url(#clip700)" d="M0 1600 L2400 1600 L2400 0 L0 0  Z" fill="#ffffff" fill-rule="evenodd" fill-opacity="1"/>
<defs>
  <clipPath id="clip701">
    <rect x="480" y="0" width="1681" height="1600"/>
  </clipPath>
</defs>
<path clip-path="url(#clip700)" d="M192.941 1486.45 L2352.76 1486.45 L2352.76 47.2441 L192.941 47.2441  Z" fill="#ffffff" fill-rule="evenodd" fill-opacity="1"/>
<defs>
  <clipPath id="clip702">
    <rect x="192" y="47" width="2161" height="1440"/>
  </clipPath>
</defs>
<polyline clip-path="url(#clip702)" style="stroke:#000000; stroke-linecap:round; stroke-linejoin:round; stroke-width:2; stroke-opacity:0.1; fill:none" points="254.067,1486.45 254.067,47.2441 "/>
<polyline clip-path="url(#clip702)" style="stroke:#000000; stroke-linecap:round; stroke-linejoin:round; stroke-width:2; stroke-opacity:0.1; fill:none" points="763.458,1486.45 763.458,47.2441 "/>
<polyline clip-path="url(#clip702)" style="stroke:#000000; stroke-linecap:round; stroke-linejoin:round; stroke-width:2; stroke-opacity:0.1; fill:none" points="1272.85,1486.45 1272.85,47.2441 "/>
<polyline clip-path="url(#clip702)" style="stroke:#000000; stroke-linecap:round; stroke-linejoin:round; stroke-width:2; stroke-opacity:0.1; fill:none" points="1782.24,1486.45 1782.24,47.2441 "/>
<polyline clip-path="url(#clip702)" style="stroke:#000000; stroke-linecap:round; stroke-linejoin:round; stroke-width:2; stroke-opacity:0.1; fill:none" points="2291.63,1486.45 2291.63,47.2441 "/>
<polyline clip-path="url(#clip700)" style="stroke:#000000; stroke-linecap:round; stroke-linejoin:round; stroke-width:4; stroke-opacity:1; fill:none" points="192.941,1486.45 2352.76,1486.45 "/>
<polyline clip-path="url(#clip700)" style="stroke:#000000; stroke-linecap:round; stroke-linejoin:round; stroke-width:4; stroke-opacity:1; fill:none" points="254.067,1486.45 254.067,1467.55 "/>
<polyline clip-path="url(#clip700)" style="stroke:#000000; stroke-linecap:round; stroke-linejoin:round; stroke-width:4; stroke-opacity:1; fill:none" points="763.458,1486.45 763.458,1467.55 "/>
<polyline clip-path="url(#clip700)" style="stroke:#000000; stroke-linecap:round; stroke-linejoin:round; stroke-width:4; stroke-opacity:1; fill:none" points="1272.85,1486.45 1272.85,1467.55 "/>
<polyline clip-path="url(#clip700)" style="stroke:#000000; stroke-linecap:round; stroke-linejoin:round; stroke-width:4; stroke-opacity:1; fill:none" points="1782.24,1486.45 1782.24,1467.55 "/>
<polyline clip-path="url(#clip700)" style="stroke:#000000; stroke-linecap:round; stroke-linejoin:round; stroke-width:4; stroke-opacity:1; fill:none" points="2291.63,1486.45 2291.63,1467.55 "/>
<path clip-path="url(#clip700)" d="M216.371 1517.37 Q212.76 1517.37 210.931 1520.93 Q209.126 1524.47 209.126 1531.6 Q209.126 1538.71 210.931 1542.27 Q212.76 1545.82 216.371 1545.82 Q220.005 1545.82 221.811 1542.27 Q223.639 1538.71 223.639 1531.6 Q223.639 1524.47 221.811 1520.93 Q220.005 1517.37 216.371 1517.37 M216.371 1513.66 Q222.181 1513.66 225.237 1518.27 Q228.315 1522.85 228.315 1531.6 Q228.315 1540.33 225.237 1544.94 Q222.181 1549.52 216.371 1549.52 Q210.561 1549.52 207.482 1544.94 Q204.427 1540.33 204.427 1531.6 Q204.427 1522.85 207.482 1518.27 Q210.561 1513.66 216.371 1513.66 Z" fill="#000000" fill-rule="evenodd" fill-opacity="1" /><path clip-path="url(#clip700)" d="M236.533 1542.97 L241.417 1542.97 L241.417 1548.85 L236.533 1548.85 L236.533 1542.97 Z" fill="#000000" fill-rule="evenodd" fill-opacity="1" /><path clip-path="url(#clip700)" d="M261.602 1517.37 Q257.991 1517.37 256.162 1520.93 Q254.357 1524.47 254.357 1531.6 Q254.357 1538.71 256.162 1542.27 Q257.991 1545.82 261.602 1545.82 Q265.236 1545.82 267.042 1542.27 Q268.871 1538.71 268.871 1531.6 Q268.871 1524.47 267.042 1520.93 Q265.236 1517.37 261.602 1517.37 M261.602 1513.66 Q267.412 1513.66 270.468 1518.27 Q273.547 1522.85 273.547 1531.6 Q273.547 1540.33 270.468 1544.94 Q267.412 1549.52 261.602 1549.52 Q255.792 1549.52 252.713 1544.94 Q249.658 1540.33 249.658 1531.6 Q249.658 1522.85 252.713 1518.27 Q255.792 1513.66 261.602 1513.66 Z" fill="#000000" fill-rule="evenodd" fill-opacity="1" /><path clip-path="url(#clip700)" d="M291.764 1517.37 Q288.153 1517.37 286.324 1520.93 Q284.519 1524.47 284.519 1531.6 Q284.519 1538.71 286.324 1542.27 Q288.153 1545.82 291.764 1545.82 Q295.398 1545.82 297.204 1542.27 Q299.033 1538.71 299.033 1531.6 Q299.033 1524.47 297.204 1520.93 Q295.398 1517.37 291.764 1517.37 M291.764 1513.66 Q297.574 1513.66 300.63 1518.27 Q303.708 1522.85 303.708 1531.6 Q303.708 1540.33 300.63 1544.94 Q297.574 1549.52 291.764 1549.52 Q285.954 1549.52 282.875 1544.94 Q279.82 1540.33 279.82 1531.6 Q279.82 1522.85 282.875 1518.27 Q285.954 1513.66 291.764 1513.66 Z" fill="#000000" fill-rule="evenodd" fill-opacity="1" /><path clip-path="url(#clip700)" d="M726.259 1517.37 Q722.648 1517.37 720.819 1520.93 Q719.014 1524.47 719.014 1531.6 Q719.014 1538.71 720.819 1542.27 Q722.648 1545.82 726.259 1545.82 Q729.893 1545.82 731.699 1542.27 Q733.527 1538.71 733.527 1531.6 Q733.527 1524.47 731.699 1520.93 Q729.893 1517.37 726.259 1517.37 M726.259 1513.66 Q732.069 1513.66 735.125 1518.27 Q738.203 1522.85 738.203 1531.6 Q738.203 1540.33 735.125 1544.94 Q732.069 1549.52 726.259 1549.52 Q720.449 1549.52 717.37 1544.94 Q714.315 1540.33 714.315 1531.6 Q714.315 1522.85 717.37 1518.27 Q720.449 1513.66 726.259 1513.66 Z" fill="#000000" fill-rule="evenodd" fill-opacity="1" /><path clip-path="url(#clip700)" d="M746.421 1542.97 L751.305 1542.97 L751.305 1548.85 L746.421 1548.85 L746.421 1542.97 Z" fill="#000000" fill-rule="evenodd" fill-opacity="1" /><path clip-path="url(#clip700)" d="M765.518 1544.91 L781.837 1544.91 L781.837 1548.85 L759.893 1548.85 L759.893 1544.91 Q762.555 1542.16 767.138 1537.53 Q771.745 1532.88 772.925 1531.53 Q775.171 1529.01 776.05 1527.27 Q776.953 1525.51 776.953 1523.82 Q776.953 1521.07 775.009 1519.33 Q773.087 1517.6 769.986 1517.6 Q767.787 1517.6 765.333 1518.36 Q762.902 1519.13 760.125 1520.68 L760.125 1515.95 Q762.949 1514.82 765.402 1514.24 Q767.856 1513.66 769.893 1513.66 Q775.263 1513.66 778.458 1516.35 Q781.652 1519.03 781.652 1523.52 Q781.652 1525.65 780.842 1527.57 Q780.055 1529.47 777.949 1532.07 Q777.37 1532.74 774.268 1535.95 Q771.166 1539.15 765.518 1544.91 Z" fill="#000000" fill-rule="evenodd" fill-opacity="1" /><path clip-path="url(#clip700)" d="M791.698 1514.29 L810.055 1514.29 L810.055 1518.22 L795.981 1518.22 L795.981 1526.7 Q796.999 1526.35 798.018 1526.19 Q799.036 1526 800.055 1526 Q805.842 1526 809.222 1529.17 Q812.601 1532.34 812.601 1537.76 Q812.601 1543.34 809.129 1546.44 Q805.657 1549.52 799.337 1549.52 Q797.161 1549.52 794.893 1549.15 Q792.648 1548.78 790.24 1548.04 L790.24 1543.34 Q792.323 1544.47 794.546 1545.03 Q796.768 1545.58 799.245 1545.58 Q803.249 1545.58 805.587 1543.48 Q807.925 1541.37 807.925 1537.76 Q807.925 1534.15 805.587 1532.04 Q803.249 1529.94 799.245 1529.94 Q797.37 1529.94 795.495 1530.35 Q793.643 1530.77 791.698 1531.65 L791.698 1514.29 Z" fill="#000000" fill-rule="evenodd" fill-opacity="1" /><path clip-path="url(#clip700)" d="M1235.15 1517.37 Q1231.54 1517.37 1229.71 1520.93 Q1227.91 1524.47 1227.91 1531.6 Q1227.91 1538.71 1229.71 1542.27 Q1231.54 1545.82 1235.15 1545.82 Q1238.79 1545.82 1240.59 1542.27 Q1242.42 1538.71 1242.42 1531.6 Q1242.42 1524.47 1240.59 1520.93 Q1238.79 1517.37 1235.15 1517.37 M1235.15 1513.66 Q1240.96 1513.66 1244.02 1518.27 Q1247.1 1522.85 1247.1 1531.6 Q1247.1 1540.33 1244.02 1544.94 Q1240.96 1549.52 1235.15 1549.52 Q1229.34 1549.52 1226.26 1544.94 Q1223.21 1540.33 1223.21 1531.6 Q1223.21 1522.85 1226.26 1518.27 Q1229.34 1513.66 1235.15 1513.66 Z" fill="#000000" fill-rule="evenodd" fill-opacity="1" /><path clip-path="url(#clip700)" d="M1255.31 1542.97 L1260.2 1542.97 L1260.2 1548.85 L1255.31 1548.85 L1255.31 1542.97 Z" fill="#000000" fill-rule="evenodd" fill-opacity="1" /><path clip-path="url(#clip700)" d="M1270.43 1514.29 L1288.79 1514.29 L1288.79 1518.22 L1274.71 1518.22 L1274.71 1526.7 Q1275.73 1526.35 1276.75 1526.19 Q1277.77 1526 1278.79 1526 Q1284.57 1526 1287.95 1529.17 Q1291.33 1532.34 1291.33 1537.76 Q1291.33 1543.34 1287.86 1546.44 Q1284.39 1549.52 1278.07 1549.52 Q1275.89 1549.52 1273.62 1549.15 Q1271.38 1548.78 1268.97 1548.04 L1268.97 1543.34 Q1271.05 1544.47 1273.28 1545.03 Q1275.5 1545.58 1277.98 1545.58 Q1281.98 1545.58 1284.32 1543.48 Q1286.66 1541.37 1286.66 1537.76 Q1286.66 1534.15 1284.32 1532.04 Q1281.98 1529.94 1277.98 1529.94 Q1276.1 1529.94 1274.23 1530.35 Q1272.37 1530.77 1270.43 1531.65 L1270.43 1514.29 Z" fill="#000000" fill-rule="evenodd" fill-opacity="1" /><path clip-path="url(#clip700)" d="M1310.54 1517.37 Q1306.93 1517.37 1305.11 1520.93 Q1303.3 1524.47 1303.3 1531.6 Q1303.3 1538.71 1305.11 1542.27 Q1306.93 1545.82 1310.54 1545.82 Q1314.18 1545.82 1315.98 1542.27 Q1317.81 1538.71 1317.81 1531.6 Q1317.81 1524.47 1315.98 1520.93 Q1314.18 1517.37 1310.54 1517.37 M1310.54 1513.66 Q1316.35 1513.66 1319.41 1518.27 Q1322.49 1522.85 1322.49 1531.6 Q1322.49 1540.33 1319.41 1544.94 Q1316.35 1549.52 1310.54 1549.52 Q1304.73 1549.52 1301.66 1544.94 Q1298.6 1540.33 1298.6 1531.6 Q1298.6 1522.85 1301.66 1518.27 Q1304.73 1513.66 1310.54 1513.66 Z" fill="#000000" fill-rule="evenodd" fill-opacity="1" /><path clip-path="url(#clip700)" d="M1745.04 1517.37 Q1741.43 1517.37 1739.6 1520.93 Q1737.79 1524.47 1737.79 1531.6 Q1737.79 1538.71 1739.6 1542.27 Q1741.43 1545.82 1745.04 1545.82 Q1748.67 1545.82 1750.48 1542.27 Q1752.31 1538.71 1752.31 1531.6 Q1752.31 1524.47 1750.48 1520.93 Q1748.67 1517.37 1745.04 1517.37 M1745.04 1513.66 Q1750.85 1513.66 1753.91 1518.27 Q1756.98 1522.85 1756.98 1531.6 Q1756.98 1540.33 1753.91 1544.94 Q1750.85 1549.52 1745.04 1549.52 Q1739.23 1549.52 1736.15 1544.94 Q1733.1 1540.33 1733.1 1531.6 Q1733.1 1522.85 1736.15 1518.27 Q1739.23 1513.66 1745.04 1513.66 Z" fill="#000000" fill-rule="evenodd" fill-opacity="1" /><path clip-path="url(#clip700)" d="M1765.2 1542.97 L1770.09 1542.97 L1770.09 1548.85 L1765.2 1548.85 L1765.2 1542.97 Z" fill="#000000" fill-rule="evenodd" fill-opacity="1" /><path clip-path="url(#clip700)" d="M1779.09 1514.29 L1801.31 1514.29 L1801.31 1516.28 L1788.77 1548.85 L1783.88 1548.85 L1795.69 1518.22 L1779.09 1518.22 L1779.09 1514.29 Z" fill="#000000" fill-rule="evenodd" fill-opacity="1" /><path clip-path="url(#clip700)" d="M1810.48 1514.29 L1828.84 1514.29 L1828.84 1518.22 L1814.76 1518.22 L1814.76 1526.7 Q1815.78 1526.35 1816.8 1526.19 Q1817.82 1526 1818.84 1526 Q1824.62 1526 1828 1529.17 Q1831.38 1532.34 1831.38 1537.76 Q1831.38 1543.34 1827.91 1546.44 Q1824.44 1549.52 1818.12 1549.52 Q1815.94 1549.52 1813.67 1549.15 Q1811.43 1548.78 1809.02 1548.04 L1809.02 1543.34 Q1811.1 1544.47 1813.33 1545.03 Q1815.55 1545.58 1818.03 1545.58 Q1822.03 1545.58 1824.37 1543.48 Q1826.71 1541.37 1826.71 1537.76 Q1826.71 1534.15 1824.37 1532.04 Q1822.03 1529.94 1818.03 1529.94 Q1816.15 1529.94 1814.28 1530.35 Q1812.42 1530.77 1810.48 1531.65 L1810.48 1514.29 Z" fill="#000000" fill-rule="evenodd" fill-opacity="1" /><path clip-path="url(#clip700)" d="M2243.7 1544.91 L2251.34 1544.91 L2251.34 1518.55 L2243.03 1520.21 L2243.03 1515.95 L2251.29 1514.29 L2255.97 1514.29 L2255.97 1544.91 L2263.61 1544.91 L2263.61 1548.85 L2243.7 1548.85 L2243.7 1544.91 Z" fill="#000000" fill-rule="evenodd" fill-opacity="1" /><path clip-path="url(#clip700)" d="M2273.05 1542.97 L2277.94 1542.97 L2277.94 1548.85 L2273.05 1548.85 L2273.05 1542.97 Z" fill="#000000" fill-rule="evenodd" fill-opacity="1" /><path clip-path="url(#clip700)" d="M2298.12 1517.37 Q2294.51 1517.37 2292.68 1520.93 Q2290.88 1524.47 2290.88 1531.6 Q2290.88 1538.71 2292.68 1542.27 Q2294.51 1545.82 2298.12 1545.82 Q2301.76 1545.82 2303.56 1542.27 Q2305.39 1538.71 2305.39 1531.6 Q2305.39 1524.47 2303.56 1520.93 Q2301.76 1517.37 2298.12 1517.37 M2298.12 1513.66 Q2303.93 1513.66 2306.99 1518.27 Q2310.07 1522.85 2310.07 1531.6 Q2310.07 1540.33 2306.99 1544.94 Q2303.93 1549.52 2298.12 1549.52 Q2292.31 1549.52 2289.23 1544.94 Q2286.18 1540.33 2286.18 1531.6 Q2286.18 1522.85 2289.23 1518.27 Q2292.31 1513.66 2298.12 1513.66 Z" fill="#000000" fill-rule="evenodd" fill-opacity="1" /><path clip-path="url(#clip700)" d="M2328.28 1517.37 Q2324.67 1517.37 2322.84 1520.93 Q2321.04 1524.47 2321.04 1531.6 Q2321.04 1538.71 2322.84 1542.27 Q2324.67 1545.82 2328.28 1545.82 Q2331.92 1545.82 2333.72 1542.27 Q2335.55 1538.71 2335.55 1531.6 Q2335.55 1524.47 2333.72 1520.93 Q2331.92 1517.37 2328.28 1517.37 M2328.28 1513.66 Q2334.09 1513.66 2337.15 1518.27 Q2340.23 1522.85 2340.23 1531.6 Q2340.23 1540.33 2337.15 1544.94 Q2334.09 1549.52 2328.28 1549.52 Q2322.47 1549.52 2319.4 1544.94 Q2316.34 1540.33 2316.34 1531.6 Q2316.34 1522.85 2319.4 1518.27 Q2322.47 1513.66 2328.28 1513.66 Z" fill="#000000" fill-rule="evenodd" fill-opacity="1" /><polyline clip-path="url(#clip702)" style="stroke:#000000; stroke-linecap:round; stroke-linejoin:round; stroke-width:2; stroke-opacity:0.1; fill:none" points="192.941,1486.45 2352.76,1486.45 "/>
<polyline clip-path="url(#clip702)" style="stroke:#000000; stroke-linecap:round; stroke-linejoin:round; stroke-width:2; stroke-opacity:0.1; fill:none" points="192.941,1006.71 2352.76,1006.71 "/>
<polyline clip-path="url(#clip702)" style="stroke:#000000; stroke-linecap:round; stroke-linejoin:round; stroke-width:2; stroke-opacity:0.1; fill:none" points="192.941,526.979 2352.76,526.979 "/>
<polyline clip-path="url(#clip702)" style="stroke:#000000; stroke-linecap:round; stroke-linejoin:round; stroke-width:2; stroke-opacity:0.1; fill:none" points="192.941,47.2441 2352.76,47.2441 "/>
<polyline clip-path="url(#clip700)" style="stroke:#000000; stroke-linecap:round; stroke-linejoin:round; stroke-width:4; stroke-opacity:1; fill:none" points="192.941,1486.45 192.941,47.2441 "/>
<polyline clip-path="url(#clip700)" style="stroke:#000000; stroke-linecap:round; stroke-linejoin:round; stroke-width:4; stroke-opacity:1; fill:none" points="192.941,1486.45 211.838,1486.45 "/>
<polyline clip-path="url(#clip700)" style="stroke:#000000; stroke-linecap:round; stroke-linejoin:round; stroke-width:4; stroke-opacity:1; fill:none" points="192.941,1006.71 211.838,1006.71 "/>
<polyline clip-path="url(#clip700)" style="stroke:#000000; stroke-linecap:round; stroke-linejoin:round; stroke-width:4; stroke-opacity:1; fill:none" points="192.941,526.979 211.838,526.979 "/>
<polyline clip-path="url(#clip700)" style="stroke:#000000; stroke-linecap:round; stroke-linejoin:round; stroke-width:4; stroke-opacity:1; fill:none" points="192.941,47.2441 211.838,47.2441 "/>
<path clip-path="url(#clip700)" d="M50.9921 1486.9 L80.6679 1486.9 L80.6679 1490.83 L50.9921 1490.83 L50.9921 1486.9 Z" fill="#000000" fill-rule="evenodd" fill-opacity="1" /><path clip-path="url(#clip700)" d="M100.76 1472.25 Q97.1493 1472.25 95.3206 1475.81 Q93.515 1479.35 93.515 1486.48 Q93.515 1493.59 95.3206 1497.15 Q97.1493 1500.7 100.76 1500.7 Q104.395 1500.7 106.2 1497.15 Q108.029 1493.59 108.029 1486.48 Q108.029 1479.35 106.2 1475.81 Q104.395 1472.25 100.76 1472.25 M100.76 1468.54 Q106.571 1468.54 109.626 1473.15 Q112.705 1477.73 112.705 1486.48 Q112.705 1495.21 109.626 1499.82 Q106.571 1504.4 100.76 1504.4 Q94.9502 1504.4 91.8715 1499.82 Q88.816 1495.21 88.816 1486.48 Q88.816 1477.73 91.8715 1473.15 Q94.9502 1468.54 100.76 1468.54 Z" fill="#000000" fill-rule="evenodd" fill-opacity="1" /><path clip-path="url(#clip700)" d="M120.922 1497.85 L125.807 1497.85 L125.807 1503.73 L120.922 1503.73 L120.922 1497.85 Z" fill="#000000" fill-rule="evenodd" fill-opacity="1" /><path clip-path="url(#clip700)" d="M136.038 1469.17 L154.394 1469.17 L154.394 1473.1 L140.32 1473.1 L140.32 1481.58 Q141.339 1481.23 142.357 1481.07 Q143.376 1480.88 144.394 1480.88 Q150.181 1480.88 153.561 1484.05 Q156.941 1487.22 156.941 1492.64 Q156.941 1498.22 153.468 1501.32 Q149.996 1504.4 143.677 1504.4 Q141.501 1504.4 139.232 1504.03 Q136.987 1503.66 134.58 1502.92 L134.58 1498.22 Q136.663 1499.35 138.885 1499.91 Q141.107 1500.46 143.584 1500.46 Q147.589 1500.46 149.927 1498.36 Q152.265 1496.25 152.265 1492.64 Q152.265 1489.03 149.927 1486.92 Q147.589 1484.82 143.584 1484.82 Q141.709 1484.82 139.834 1485.23 Q137.982 1485.65 136.038 1486.53 L136.038 1469.17 Z" fill="#000000" fill-rule="evenodd" fill-opacity="1" /><path clip-path="url(#clip700)" d="M99.765 992.512 Q96.1539 992.512 94.3252 996.077 Q92.5197 999.618 92.5197 1006.75 Q92.5197 1013.85 94.3252 1017.42 Q96.1539 1020.96 99.765 1020.96 Q103.399 1020.96 105.205 1017.42 Q107.033 1013.85 107.033 1006.75 Q107.033 999.618 105.205 996.077 Q103.399 992.512 99.765 992.512 M99.765 988.808 Q105.575 988.808 108.631 993.415 Q111.709 997.998 111.709 1006.75 Q111.709 1015.47 108.631 1020.08 Q105.575 1024.66 99.765 1024.66 Q93.9549 1024.66 90.8762 1020.08 Q87.8206 1015.47 87.8206 1006.75 Q87.8206 997.998 90.8762 993.415 Q93.9549 988.808 99.765 988.808 Z" fill="#000000" fill-rule="evenodd" fill-opacity="1" /><path clip-path="url(#clip700)" d="M119.927 1018.11 L124.811 1018.11 L124.811 1023.99 L119.927 1023.99 L119.927 1018.11 Z" fill="#000000" fill-rule="evenodd" fill-opacity="1" /><path clip-path="url(#clip700)" d="M144.996 992.512 Q141.385 992.512 139.556 996.077 Q137.751 999.618 137.751 1006.75 Q137.751 1013.85 139.556 1017.42 Q141.385 1020.96 144.996 1020.96 Q148.63 1020.96 150.436 1017.42 Q152.265 1013.85 152.265 1006.75 Q152.265 999.618 150.436 996.077 Q148.63 992.512 144.996 992.512 M144.996 988.808 Q150.806 988.808 153.862 993.415 Q156.941 997.998 156.941 1006.75 Q156.941 1015.47 153.862 1020.08 Q150.806 1024.66 144.996 1024.66 Q139.186 1024.66 136.107 1020.08 Q133.052 1015.47 133.052 1006.75 Q133.052 997.998 136.107 993.415 Q139.186 988.808 144.996 988.808 Z" fill="#000000" fill-rule="evenodd" fill-opacity="1" /><path clip-path="url(#clip700)" d="M100.76 512.777 Q97.1493 512.777 95.3206 516.342 Q93.515 519.884 93.515 527.013 Q93.515 534.12 95.3206 537.685 Q97.1493 541.226 100.76 541.226 Q104.395 541.226 106.2 537.685 Q108.029 534.12 108.029 527.013 Q108.029 519.884 106.2 516.342 Q104.395 512.777 100.76 512.777 M100.76 509.074 Q106.571 509.074 109.626 513.68 Q112.705 518.263 112.705 527.013 Q112.705 535.74 109.626 540.347 Q106.571 544.93 100.76 544.93 Q94.9502 544.93 91.8715 540.347 Q88.816 535.74 88.816 527.013 Q88.816 518.263 91.8715 513.68 Q94.9502 509.074 100.76 509.074 Z" fill="#000000" fill-rule="evenodd" fill-opacity="1" /><path clip-path="url(#clip700)" d="M120.922 538.379 L125.807 538.379 L125.807 544.259 L120.922 544.259 L120.922 538.379 Z" fill="#000000" fill-rule="evenodd" fill-opacity="1" /><path clip-path="url(#clip700)" d="M136.038 509.699 L154.394 509.699 L154.394 513.634 L140.32 513.634 L140.32 522.106 Q141.339 521.759 142.357 521.597 Q143.376 521.412 144.394 521.412 Q150.181 521.412 153.561 524.583 Q156.941 527.754 156.941 533.171 Q156.941 538.749 153.468 541.851 Q149.996 544.93 143.677 544.93 Q141.501 544.93 139.232 544.56 Q136.987 544.189 134.58 543.449 L134.58 538.749 Q136.663 539.884 138.885 540.439 Q141.107 540.995 143.584 540.995 Q147.589 540.995 149.927 538.888 Q152.265 536.782 152.265 533.171 Q152.265 529.56 149.927 527.453 Q147.589 525.347 143.584 525.347 Q141.709 525.347 139.834 525.763 Q137.982 526.18 136.038 527.06 L136.038 509.699 Z" fill="#000000" fill-rule="evenodd" fill-opacity="1" /><path clip-path="url(#clip700)" d="M90.5752 60.5889 L98.2141 60.5889 L98.2141 34.2233 L89.904 35.89 L89.904 31.6308 L98.1678 29.9641 L102.844 29.9641 L102.844 60.5889 L110.483 60.5889 L110.483 64.5241 L90.5752 64.5241 L90.5752 60.5889 Z" fill="#000000" fill-rule="evenodd" fill-opacity="1" /><path clip-path="url(#clip700)" d="M119.927 58.6445 L124.811 58.6445 L124.811 64.5241 L119.927 64.5241 L119.927 58.6445 Z" fill="#000000" fill-rule="evenodd" fill-opacity="1" /><path clip-path="url(#clip700)" d="M144.996 33.0428 Q141.385 33.0428 139.556 36.6076 Q137.751 40.1492 137.751 47.2788 Q137.751 54.3853 139.556 57.9501 Q141.385 61.4917 144.996 61.4917 Q148.63 61.4917 150.436 57.9501 Q152.265 54.3853 152.265 47.2788 Q152.265 40.1492 150.436 36.6076 Q148.63 33.0428 144.996 33.0428 M144.996 29.3391 Q150.806 29.3391 153.862 33.9456 Q156.941 38.5289 156.941 47.2788 Q156.941 56.0056 153.862 60.6121 Q150.806 65.1954 144.996 65.1954 Q139.186 65.1954 136.107 60.6121 Q133.052 56.0056 133.052 47.2788 Q133.052 38.5289 136.107 33.9456 Q139.186 29.3391 144.996 29.3391 Z" fill="#000000" fill-rule="evenodd" fill-opacity="1" /><line clip-path="url(#clip702)" x1="254.067" y1="1006.71" x2="238.067" y2="990.713" style="stroke:#009af9; stroke-width:3.2; stroke-opacity:1"/>
<line clip-path="url(#clip702)" x1="254.067" y1="1006.71" x2="238.067" y2="1022.71" style="stroke:#009af9; stroke-width:3.2; stroke-opacity:1"/>
<line clip-path="url(#clip702)" x1="254.067" y1="1006.71" x2="270.067" y2="1022.71" style="stroke:#009af9; stroke-width:3.2; stroke-opacity:1"/>
<line clip-path="url(#clip702)" x1="254.067" y1="1006.71" x2="270.067" y2="990.713" style="stroke:#009af9; stroke-width:3.2; stroke-opacity:1"/>
<line clip-path="url(#clip702)" x1="361.308" y1="1004.06" x2="345.308" y2="988.055" style="stroke:#009af9; stroke-width:3.2; stroke-opacity:1"/>
<line clip-path="url(#clip702)" x1="361.308" y1="1004.06" x2="345.308" y2="1020.06" style="stroke:#009af9; stroke-width:3.2; stroke-opacity:1"/>
<line clip-path="url(#clip702)" x1="361.308" y1="1004.06" x2="377.308" y2="1020.06" style="stroke:#009af9; stroke-width:3.2; stroke-opacity:1"/>
<line clip-path="url(#clip702)" x1="361.308" y1="1004.06" x2="377.308" y2="988.055" style="stroke:#009af9; stroke-width:3.2; stroke-opacity:1"/>
<line clip-path="url(#clip702)" x1="468.548" y1="996.082" x2="452.548" y2="980.082" style="stroke:#009af9; stroke-width:3.2; stroke-opacity:1"/>
<line clip-path="url(#clip702)" x1="468.548" y1="996.082" x2="452.548" y2="1012.08" style="stroke:#009af9; stroke-width:3.2; stroke-opacity:1"/>
<line clip-path="url(#clip702)" x1="468.548" y1="996.082" x2="484.548" y2="1012.08" style="stroke:#009af9; stroke-width:3.2; stroke-opacity:1"/>
<line clip-path="url(#clip702)" x1="468.548" y1="996.082" x2="484.548" y2="980.082" style="stroke:#009af9; stroke-width:3.2; stroke-opacity:1"/>
<line clip-path="url(#clip702)" x1="575.788" y1="982.793" x2="559.788" y2="966.793" style="stroke:#009af9; stroke-width:3.2; stroke-opacity:1"/>
<line clip-path="url(#clip702)" x1="575.788" y1="982.793" x2="559.788" y2="998.793" style="stroke:#009af9; stroke-width:3.2; stroke-opacity:1"/>
<line clip-path="url(#clip702)" x1="575.788" y1="982.793" x2="591.788" y2="998.793" style="stroke:#009af9; stroke-width:3.2; stroke-opacity:1"/>
<line clip-path="url(#clip702)" x1="575.788" y1="982.793" x2="591.788" y2="966.793" style="stroke:#009af9; stroke-width:3.2; stroke-opacity:1"/>
<line clip-path="url(#clip702)" x1="683.028" y1="964.188" x2="667.028" y2="948.188" style="stroke:#009af9; stroke-width:3.2; stroke-opacity:1"/>
<line clip-path="url(#clip702)" x1="683.028" y1="964.188" x2="667.028" y2="980.188" style="stroke:#009af9; stroke-width:3.2; stroke-opacity:1"/>
<line clip-path="url(#clip702)" x1="683.028" y1="964.188" x2="699.028" y2="980.188" style="stroke:#009af9; stroke-width:3.2; stroke-opacity:1"/>
<line clip-path="url(#clip702)" x1="683.028" y1="964.188" x2="699.028" y2="948.188" style="stroke:#009af9; stroke-width:3.2; stroke-opacity:1"/>
<line clip-path="url(#clip702)" x1="790.268" y1="940.268" x2="774.268" y2="924.268" style="stroke:#009af9; stroke-width:3.2; stroke-opacity:1"/>
<line clip-path="url(#clip702)" x1="790.268" y1="940.268" x2="774.268" y2="956.268" style="stroke:#009af9; stroke-width:3.2; stroke-opacity:1"/>
<line clip-path="url(#clip702)" x1="790.268" y1="940.268" x2="806.268" y2="956.268" style="stroke:#009af9; stroke-width:3.2; stroke-opacity:1"/>
<line clip-path="url(#clip702)" x1="790.268" y1="940.268" x2="806.268" y2="924.268" style="stroke:#009af9; stroke-width:3.2; stroke-opacity:1"/>
<line clip-path="url(#clip702)" x1="897.508" y1="911.032" x2="881.508" y2="895.032" style="stroke:#009af9; stroke-width:3.2; stroke-opacity:1"/>
<line clip-path="url(#clip702)" x1="897.508" y1="911.032" x2="881.508" y2="927.032" style="stroke:#009af9; stroke-width:3.2; stroke-opacity:1"/>
<line clip-path="url(#clip702)" x1="897.508" y1="911.032" x2="913.508" y2="927.032" style="stroke:#009af9; stroke-width:3.2; stroke-opacity:1"/>
<line clip-path="url(#clip702)" x1="897.508" y1="911.032" x2="913.508" y2="895.032" style="stroke:#009af9; stroke-width:3.2; stroke-opacity:1"/>
<line clip-path="url(#clip702)" x1="1004.75" y1="876.481" x2="988.748" y2="860.481" style="stroke:#009af9; stroke-width:3.2; stroke-opacity:1"/>
<line clip-path="url(#clip702)" x1="1004.75" y1="876.481" x2="988.748" y2="892.481" style="stroke:#009af9; stroke-width:3.2; stroke-opacity:1"/>
<line clip-path="url(#clip702)" x1="1004.75" y1="876.481" x2="1020.75" y2="892.481" style="stroke:#009af9; stroke-width:3.2; stroke-opacity:1"/>
<line clip-path="url(#clip702)" x1="1004.75" y1="876.481" x2="1020.75" y2="860.481" style="stroke:#009af9; stroke-width:3.2; stroke-opacity:1"/>
<line clip-path="url(#clip702)" x1="1111.99" y1="836.613" x2="1095.99" y2="820.613" style="stroke:#009af9; stroke-width:3.2; stroke-opacity:1"/>
<line clip-path="url(#clip702)" x1="1111.99" y1="836.613" x2="1095.99" y2="852.613" style="stroke:#009af9; stroke-width:3.2; stroke-opacity:1"/>
<line clip-path="url(#clip702)" x1="1111.99" y1="836.613" x2="1127.99" y2="852.613" style="stroke:#009af9; stroke-width:3.2; stroke-opacity:1"/>
<line clip-path="url(#clip702)" x1="1111.99" y1="836.613" x2="1127.99" y2="820.613" style="stroke:#009af9; stroke-width:3.2; stroke-opacity:1"/>
<line clip-path="url(#clip702)" x1="1219.23" y1="791.431" x2="1203.23" y2="775.431" style="stroke:#009af9; stroke-width:3.2; stroke-opacity:1"/>
<line clip-path="url(#clip702)" x1="1219.23" y1="791.431" x2="1203.23" y2="807.431" style="stroke:#009af9; stroke-width:3.2; stroke-opacity:1"/>
<line clip-path="url(#clip702)" x1="1219.23" y1="791.431" x2="1235.23" y2="807.431" style="stroke:#009af9; stroke-width:3.2; stroke-opacity:1"/>
<line clip-path="url(#clip702)" x1="1219.23" y1="791.431" x2="1235.23" y2="775.431" style="stroke:#009af9; stroke-width:3.2; stroke-opacity:1"/>
<line clip-path="url(#clip702)" x1="1326.47" y1="740.932" x2="1310.47" y2="724.932" style="stroke:#009af9; stroke-width:3.2; stroke-opacity:1"/>
<line clip-path="url(#clip702)" x1="1326.47" y1="740.932" x2="1310.47" y2="756.932" style="stroke:#009af9; stroke-width:3.2; stroke-opacity:1"/>
<line clip-path="url(#clip702)" x1="1326.47" y1="740.932" x2="1342.47" y2="756.932" style="stroke:#009af9; stroke-width:3.2; stroke-opacity:1"/>
<line clip-path="url(#clip702)" x1="1326.47" y1="740.932" x2="1342.47" y2="724.932" style="stroke:#009af9; stroke-width:3.2; stroke-opacity:1"/>
<line clip-path="url(#clip702)" x1="1433.71" y1="685.118" x2="1417.71" y2="669.118" style="stroke:#009af9; stroke-width:3.2; stroke-opacity:1"/>
<line clip-path="url(#clip702)" x1="1433.71" y1="685.118" x2="1417.71" y2="701.118" style="stroke:#009af9; stroke-width:3.2; stroke-opacity:1"/>
<line clip-path="url(#clip702)" x1="1433.71" y1="685.118" x2="1449.71" y2="701.118" style="stroke:#009af9; stroke-width:3.2; stroke-opacity:1"/>
<line clip-path="url(#clip702)" x1="1433.71" y1="685.118" x2="1449.71" y2="669.118" style="stroke:#009af9; stroke-width:3.2; stroke-opacity:1"/>
<line clip-path="url(#clip702)" x1="1540.95" y1="623.989" x2="1524.95" y2="607.989" style="stroke:#009af9; stroke-width:3.2; stroke-opacity:1"/>
<line clip-path="url(#clip702)" x1="1540.95" y1="623.989" x2="1524.95" y2="639.989" style="stroke:#009af9; stroke-width:3.2; stroke-opacity:1"/>
<line clip-path="url(#clip702)" x1="1540.95" y1="623.989" x2="1556.95" y2="639.989" style="stroke:#009af9; stroke-width:3.2; stroke-opacity:1"/>
<line clip-path="url(#clip702)" x1="1540.95" y1="623.989" x2="1556.95" y2="607.989" style="stroke:#009af9; stroke-width:3.2; stroke-opacity:1"/>
<line clip-path="url(#clip702)" x1="1648.19" y1="557.543" x2="1632.19" y2="541.543" style="stroke:#009af9; stroke-width:3.2; stroke-opacity:1"/>
<line clip-path="url(#clip702)" x1="1648.19" y1="557.543" x2="1632.19" y2="573.543" style="stroke:#009af9; stroke-width:3.2; stroke-opacity:1"/>
<line clip-path="url(#clip702)" x1="1648.19" y1="557.543" x2="1664.19" y2="573.543" style="stroke:#009af9; stroke-width:3.2; stroke-opacity:1"/>
<line clip-path="url(#clip702)" x1="1648.19" y1="557.543" x2="1664.19" y2="541.543" style="stroke:#009af9; stroke-width:3.2; stroke-opacity:1"/>
<line clip-path="url(#clip702)" x1="1755.43" y1="485.783" x2="1739.43" y2="469.783" style="stroke:#009af9; stroke-width:3.2; stroke-opacity:1"/>
<line clip-path="url(#clip702)" x1="1755.43" y1="485.783" x2="1739.43" y2="501.783" style="stroke:#009af9; stroke-width:3.2; stroke-opacity:1"/>
<line clip-path="url(#clip702)" x1="1755.43" y1="485.783" x2="1771.43" y2="501.783" style="stroke:#009af9; stroke-width:3.2; stroke-opacity:1"/>
<line clip-path="url(#clip702)" x1="1755.43" y1="485.783" x2="1771.43" y2="469.783" style="stroke:#009af9; stroke-width:3.2; stroke-opacity:1"/>
<line clip-path="url(#clip702)" x1="1862.67" y1="408.706" x2="1846.67" y2="392.706" style="stroke:#009af9; stroke-width:3.2; stroke-opacity:1"/>
<line clip-path="url(#clip702)" x1="1862.67" y1="408.706" x2="1846.67" y2="424.706" style="stroke:#009af9; stroke-width:3.2; stroke-opacity:1"/>
<line clip-path="url(#clip702)" x1="1862.67" y1="408.706" x2="1878.67" y2="424.706" style="stroke:#009af9; stroke-width:3.2; stroke-opacity:1"/>
<line clip-path="url(#clip702)" x1="1862.67" y1="408.706" x2="1878.67" y2="392.706" style="stroke:#009af9; stroke-width:3.2; stroke-opacity:1"/>
<line clip-path="url(#clip702)" x1="1969.91" y1="326.314" x2="1953.91" y2="310.314" style="stroke:#009af9; stroke-width:3.2; stroke-opacity:1"/>
<line clip-path="url(#clip702)" x1="1969.91" y1="326.314" x2="1953.91" y2="342.314" style="stroke:#009af9; stroke-width:3.2; stroke-opacity:1"/>
<line clip-path="url(#clip702)" x1="1969.91" y1="326.314" x2="1985.91" y2="342.314" style="stroke:#009af9; stroke-width:3.2; stroke-opacity:1"/>
<line clip-path="url(#clip702)" x1="1969.91" y1="326.314" x2="1985.91" y2="310.314" style="stroke:#009af9; stroke-width:3.2; stroke-opacity:1"/>
<line clip-path="url(#clip702)" x1="2077.15" y1="238.606" x2="2061.15" y2="222.606" style="stroke:#009af9; stroke-width:3.2; stroke-opacity:1"/>
<line clip-path="url(#clip702)" x1="2077.15" y1="238.606" x2="2061.15" y2="254.606" style="stroke:#009af9; stroke-width:3.2; stroke-opacity:1"/>
<line clip-path="url(#clip702)" x1="2077.15" y1="238.606" x2="2093.15" y2="254.606" style="stroke:#009af9; stroke-width:3.2; stroke-opacity:1"/>
<line clip-path="url(#clip702)" x1="2077.15" y1="238.606" x2="2093.15" y2="222.606" style="stroke:#009af9; stroke-width:3.2; stroke-opacity:1"/>
<line clip-path="url(#clip702)" x1="2184.39" y1="145.583" x2="2168.39" y2="129.583" style="stroke:#009af9; stroke-width:3.2; stroke-opacity:1"/>
<line clip-path="url(#clip702)" x1="2184.39" y1="145.583" x2="2168.39" y2="161.583" style="stroke:#009af9; stroke-width:3.2; stroke-opacity:1"/>
<line clip-path="url(#clip702)" x1="2184.39" y1="145.583" x2="2200.39" y2="161.583" style="stroke:#009af9; stroke-width:3.2; stroke-opacity:1"/>
<line clip-path="url(#clip702)" x1="2184.39" y1="145.583" x2="2200.39" y2="129.583" style="stroke:#009af9; stroke-width:3.2; stroke-opacity:1"/>
<line clip-path="url(#clip702)" x1="2291.63" y1="47.2441" x2="2275.63" y2="31.2441" style="stroke:#009af9; stroke-width:3.2; stroke-opacity:1"/>
<line clip-path="url(#clip702)" x1="2291.63" y1="47.2441" x2="2275.63" y2="63.2441" style="stroke:#009af9; stroke-width:3.2; stroke-opacity:1"/>
<line clip-path="url(#clip702)" x1="2291.63" y1="47.2441" x2="2307.63" y2="63.2441" style="stroke:#009af9; stroke-width:3.2; stroke-opacity:1"/>
<line clip-path="url(#clip702)" x1="2291.63" y1="47.2441" x2="2307.63" y2="31.2441" style="stroke:#009af9; stroke-width:3.2; stroke-opacity:1"/>
<polyline clip-path="url(#clip702)" style="stroke:#e26f46; stroke-linecap:round; stroke-linejoin:round; stroke-width:4; stroke-opacity:1; fill:none" stroke-dasharray="16, 10" points="254.067,1006.71 274.649,1004.56 295.23,1002.41 315.812,1000.25 336.393,998.099 356.975,995.945 377.556,993.791 398.137,991.637 418.719,989.484 439.3,987.33 459.882,985.176 480.463,983.023 501.045,980.869 521.626,978.715 542.208,976.562 562.789,974.408 583.37,972.254 603.952,970.101 624.533,967.947 645.115,965.793 665.696,963.639 686.278,961.486 706.859,959.332 727.44,957.178 748.022,955.025 768.603,952.871 789.185,950.717 809.766,948.564 830.348,946.41 850.929,944.256 871.51,942.103 892.092,939.949 912.673,937.795 933.255,935.641 953.836,933.488 974.418,931.334 994.999,929.18 1015.58,927.027 1036.16,924.873 1056.74,922.719 1077.32,920.566 1097.91,918.412 1118.49,916.258 1139.07,914.105 1159.65,911.951 1180.23,909.797 1200.81,907.644 1221.39,905.49 1241.98,903.336 1262.56,901.182 1283.14,899.029 1303.72,896.875 1324.3,894.721 1344.88,892.568 1365.46,890.414 1386.05,888.26 1406.63,886.107 1427.21,883.953 1447.79,881.799 1468.37,879.646 1488.95,877.492 1509.53,875.338 1530.12,873.184 1550.7,871.031 1571.28,868.877 1591.86,866.723 1612.44,864.57 1633.02,862.416 1653.6,860.262 1674.19,858.109 1694.77,855.955 1715.35,853.801 1735.93,851.648 1756.51,849.494 1777.09,847.34 1797.67,845.186 1818.26,843.033 1838.84,840.879 1859.42,838.725 1880,836.572 1900.58,834.418 1921.16,832.264 1941.74,830.111 1962.33,827.957 1982.91,825.803 2003.49,823.65 2024.07,821.496 2044.65,819.342 2065.23,817.189 2085.81,815.035 2106.4,812.881 2126.98,810.727 2147.56,808.574 2168.14,806.42 2188.72,804.266 2209.3,802.113 2229.88,799.959 2250.47,797.805 2271.05,795.652 2291.63,793.498 "/>
<polyline clip-path="url(#clip702)" style="stroke:#3da44d; stroke-linecap:round; stroke-linejoin:round; stroke-width:4; stroke-opacity:1; fill:none" stroke-dasharray="16, 10" points="254.067,1184.39 274.649,1175.78 295.23,1167.16 315.812,1158.55 336.393,1149.93 356.975,1141.32 377.556,1132.7 398.137,1124.09 418.719,1115.47 439.3,1106.86 459.882,1098.25 480.463,1089.63 501.045,1081.02 521.626,1072.4 542.208,1063.79 562.789,1055.17 583.37,1046.56 603.952,1037.94 624.533,1029.33 645.115,1020.71 665.696,1012.1 686.278,1003.48 706.859,994.868 727.44,986.253 748.022,977.638 768.603,969.024 789.185,960.409 809.766,951.794 830.348,943.179 850.929,934.565 871.51,925.95 892.092,917.335 912.673,908.72 933.255,900.106 953.836,891.491 974.418,882.876 994.999,874.261 1015.58,865.647 1036.16,857.032 1056.74,848.417 1077.32,839.802 1097.91,831.187 1118.49,822.573 1139.07,813.958 1159.65,805.343 1180.23,796.728 1200.81,788.114 1221.39,779.499 1241.98,770.884 1262.56,762.269 1283.14,753.655 1303.72,745.04 1324.3,736.425 1344.88,727.81 1365.46,719.196 1386.05,710.581 1406.63,701.966 1427.21,693.351 1447.79,684.737 1468.37,676.122 1488.95,667.507 1509.53,658.892 1530.12,650.277 1550.7,641.663 1571.28,633.048 1591.86,624.433 1612.44,615.818 1633.02,607.204 1653.6,598.589 1674.19,589.974 1694.77,581.359 1715.35,572.745 1735.93,564.13 1756.51,555.515 1777.09,546.9 1797.67,538.286 1818.26,529.671 1838.84,521.056 1859.42,512.441 1880,503.827 1900.58,495.212 1921.16,486.597 1941.74,477.982 1962.33,469.367 1982.91,460.753 2003.49,452.138 2024.07,443.523 2044.65,434.908 2065.23,426.294 2085.81,417.679 2106.4,409.064 2126.98,400.449 2147.56,391.835 2168.14,383.22 2188.72,374.605 2209.3,365.99 2229.88,357.376 2250.47,348.761 2271.05,340.146 2291.63,331.531 "/>
<polyline clip-path="url(#clip702)" style="stroke:#c271d2; stroke-linecap:round; stroke-linejoin:round; stroke-width:4; stroke-opacity:1; fill:none" stroke-dasharray="16, 10" points="254.067,1752.97 274.649,1735.74 295.23,1718.51 315.812,1701.28 336.393,1684.05 356.975,1666.82 377.556,1649.59 398.137,1632.36 418.719,1615.13 439.3,1597.9 459.882,1580.67 480.463,1563.44 501.045,1546.21 521.626,1528.98 542.208,1511.75 562.789,1494.52 583.37,1477.29 603.952,1460.07 624.533,1442.84 645.115,1425.61 665.696,1408.38 686.278,1391.15 706.859,1373.92 727.44,1356.69 748.022,1339.46 768.603,1322.23 789.185,1305 809.766,1287.77 830.348,1270.54 850.929,1253.31 871.51,1236.08 892.092,1218.85 912.673,1201.62 933.255,1184.39 953.836,1167.16 974.418,1149.93 994.999,1132.7 1015.58,1115.47 1036.16,1098.25 1056.74,1081.02 1077.32,1063.79 1097.91,1046.56 1118.49,1029.33 1139.07,1012.1 1159.65,994.868 1180.23,977.638 1200.81,960.409 1221.39,943.179 1241.98,925.95 1262.56,908.72 1283.14,891.491 1303.72,874.261 1324.3,857.032 1344.88,839.802 1365.46,822.573 1386.05,805.343 1406.63,788.114 1427.21,770.884 1447.79,753.655 1468.37,736.425 1488.95,719.196 1509.53,701.966 1530.12,684.737 1550.7,667.507 1571.28,650.277 1591.86,633.048 1612.44,615.818 1633.02,598.589 1653.6,581.359 1674.19,564.13 1694.77,546.9 1715.35,529.671 1735.93,512.441 1756.51,495.212 1777.09,477.982 1797.67,460.753 1818.26,443.523 1838.84,426.294 1859.42,409.064 1880,391.835 1900.58,374.605 1921.16,357.376 1941.74,340.146 1962.33,322.916 1982.91,305.687 2003.49,288.457 2024.07,271.228 2044.65,253.998 2065.23,236.769 2085.81,219.539 2106.4,202.31 2126.98,185.08 2147.56,167.851 2168.14,150.621 2188.72,133.392 2209.3,116.162 2229.88,98.9327 2250.47,81.7031 2271.05,64.4736 2291.63,47.2441 "/>
<polyline clip-path="url(#clip702)" style="stroke:#000000; stroke-linecap:round; stroke-linejoin:round; stroke-width:4; stroke-opacity:1; fill:none" points="254.067,1006.71 274.649,1004.56 295.23,1002.41 315.812,1000.25 336.393,998.099 356.975,995.945 377.556,993.791 398.137,991.637 418.719,989.484 439.3,987.33 459.882,985.176 480.463,983.023 501.045,980.869 521.626,978.715 542.208,976.562 562.789,974.408 583.37,972.254 603.952,970.101 624.533,967.947 645.115,965.793 665.696,963.639 686.278,961.486 706.859,959.332 727.44,957.178 748.022,955.025 768.603,952.871 789.185,950.717 809.766,948.564 830.348,943.179 850.929,934.565 871.51,925.95 892.092,917.335 912.673,908.72 933.255,900.106 953.836,891.491 974.418,882.876 994.999,874.261 1015.58,865.647 1036.16,857.032 1056.74,848.417 1077.32,839.802 1097.91,831.187 1118.49,822.573 1139.07,813.958 1159.65,805.343 1180.23,796.728 1200.81,788.114 1221.39,779.499 1241.98,770.884 1262.56,762.269 1283.14,753.655 1303.72,745.04 1324.3,736.425 1344.88,727.81 1365.46,719.196 1386.05,710.581 1406.63,701.966 1427.21,693.351 1447.79,684.737 1468.37,676.122 1488.95,667.507 1509.53,658.892 1530.12,650.277 1550.7,641.663 1571.28,633.048 1591.86,624.433 1612.44,615.818 1633.02,598.589 1653.6,581.359 1674.19,564.13 1694.77,546.9 1715.35,529.671 1735.93,512.441 1756.51,495.212 1777.09,477.982 1797.67,460.753 1818.26,443.523 1838.84,426.294 1859.42,409.064 1880,391.835 1900.58,374.605 1921.16,357.376 1941.74,340.146 1962.33,322.916 1982.91,305.687 2003.49,288.457 2024.07,271.228 2044.65,253.998 2065.23,236.769 2085.81,219.539 2106.4,202.31 2126.98,185.08 2147.56,167.851 2168.14,150.621 2188.72,133.392 2209.3,116.162 2229.88,98.9327 2250.47,81.7031 2271.05,64.4736 2291.63,47.2441 "/>
</svg>
