<?xml version="1.0" encoding="UTF-8"?>
<svg xmlns="http://www.w3.org/2000/svg" xmlns:xlink="http://www.w3.org/1999/xlink" width="600" height="400" viewBox="0 0 600 400">
<defs>
<g>
<g id="glyph-0-0-c3fee500">
<path d="M 7.09375 -4.78125 C 7.09375 -1.515625 5.953125 0.203125 3.84375 0.203125 C 1.71875 0.203125 0.609375 -1.515625 0.609375 -4.859375 C 0.609375 -8.1875 1.703125 -9.921875 3.84375 -9.921875 C 6 -9.921875 7.09375 -8.21875 7.09375 -4.78125 Z M 5.84375 -4.890625 C 5.84375 -7.546875 5.1875 -8.828125 3.84375 -8.828125 C 2.515625 -8.828125 1.859375 -7.5625 1.859375 -4.84375 C 1.859375 -2.125 2.515625 -0.8125 3.828125 -0.8125 C 5.1875 -0.8125 5.84375 -2.078125 5.84375 -4.890625 Z M 5.84375 -4.890625 "/>
</g>
<g id="glyph-0-1-c3fee500">
<path d="M 2.671875 0 C 2.671875 0 1.21875 0 1.21875 0 C 1.21875 0 1.21875 -1.453125 1.21875 -1.453125 C 1.21875 -1.453125 2.671875 -1.453125 2.671875 -1.453125 C 2.671875 -1.453125 2.671875 0 2.671875 0 Z M 2.671875 0 "/>
</g>
<g id="glyph-1-0-c3fee500">
<path d="M 7.09375 -4.78125 C 7.09375 -1.515625 5.953125 0.203125 3.84375 0.203125 C 1.71875 0.203125 0.609375 -1.515625 0.609375 -4.859375 C 0.609375 -8.1875 1.703125 -9.921875 3.84375 -9.921875 C 6 -9.921875 7.09375 -8.21875 7.09375 -4.78125 Z M 5.84375 -4.890625 C 5.84375 -7.546875 5.1875 -8.828125 3.84375 -8.828125 C 2.515625 -8.828125 1.859375 -7.5625 1.859375 -4.84375 C 1.859375 -2.125 2.515625 -0.8125 3.828125 -0.8125 C 5.1875 -0.8125 5.84375 -2.078125 5.84375 -4.890625 Z M 5.84375 -4.890625 "/>
</g>
<g id="glyph-1-1-c3fee500">
<path d="M 2.671875 0 C 2.671875 0 1.21875 0 1.21875 0 C 1.21875 0 1.21875 -1.453125 1.21875 -1.453125 C 1.21875 -1.453125 2.671875 -1.453125 2.671875 -1.453125 C 2.671875 -1.453125 2.671875 0 2.671875 0 Z M 2.671875 0 "/>
</g>
<g id="glyph-1-2-c3fee500">
<path d="M 7.1875 -3.296875 C 7.1875 -1.1875 5.78125 0.203125 3.78125 0.203125 C 2.015625 0.203125 0.890625 -0.578125 0.484375 -2.546875 C 0.484375 -2.546875 1.71875 -2.546875 1.71875 -2.546875 C 2.015625 -1.421875 2.671875 -0.875 3.75 -0.875 C 5.09375 -0.875 5.921875 -1.6875 5.921875 -3.125 C 5.921875 -4.59375 5.078125 -5.453125 3.75 -5.453125 C 2.984375 -5.453125 2.5 -5.203125 1.9375 -4.515625 C 1.9375 -4.515625 0.796875 -4.515625 0.796875 -4.515625 C 0.796875 -4.515625 1.546875 -9.71875 1.546875 -9.71875 C 1.546875 -9.71875 6.65625 -9.71875 6.65625 -9.71875 C 6.65625 -9.71875 6.65625 -8.5 6.65625 -8.5 C 6.65625 -8.5 2.53125 -8.5 2.53125 -8.5 C 2.53125 -8.5 2.140625 -5.9375 2.140625 -5.9375 C 2.71875 -6.359375 3.28125 -6.53125 3.96875 -6.53125 C 5.875 -6.53125 7.1875 -5.25 7.1875 -3.296875 Z M 7.1875 -3.296875 "/>
</g>
<g id="glyph-1-3-c3fee500">
<path d="M 4.859375 0 C 4.859375 0 3.625 0 3.625 0 C 3.625 0 3.625 -7.0625 3.625 -7.0625 C 3.625 -7.0625 1.421875 -7.0625 1.421875 -7.0625 C 1.421875 -7.0625 1.421875 -7.953125 1.421875 -7.953125 C 3.328125 -8.1875 3.609375 -8.40625 4.046875 -9.921875 C 4.046875 -9.921875 4.859375 -9.921875 4.859375 -9.921875 C 4.859375 -9.921875 4.859375 0 4.859375 0 Z M 4.859375 0 "/>
</g>
<g id="glyph-2-0-c3fee500">
<path d="M 7.09375 -4.78125 C 7.09375 -1.515625 5.953125 0.203125 3.84375 0.203125 C 1.71875 0.203125 0.609375 -1.515625 0.609375 -4.859375 C 0.609375 -8.1875 1.703125 -9.921875 3.84375 -9.921875 C 6 -9.921875 7.09375 -8.21875 7.09375 -4.78125 Z M 5.84375 -4.890625 C 5.84375 -7.546875 5.1875 -8.828125 3.84375 -8.828125 C 2.515625 -8.828125 1.859375 -7.5625 1.859375 -4.84375 C 1.859375 -2.125 2.515625 -0.8125 3.828125 -0.8125 C 5.1875 -0.8125 5.84375 -2.078125 5.84375 -4.890625 Z M 5.84375 -4.890625 "/>
</g>
<g id="glyph-2-1-c3fee500">
<path d="M 2.671875 0 C 2.671875 0 1.21875 0 1.21875 0 C 1.21875 0 1.21875 -1.453125 1.21875 -1.453125 C 1.21875 -1.453125 2.671875 -1.453125 2.671875 -1.453125 C 2.671875 -1.453125 2.671875 0 2.671875 0 Z M 2.671875 0 "/>
</g>
<g id="glyph-3-0-c3fee500">
<path d="M 7.09375 -4.78125 C 7.09375 -1.515625 5.953125 0.203125 3.84375 0.203125 C 1.71875 0.203125 0.609375 -1.515625 0.609375 -4.859375 C 0.609375 -8.1875 1.703125 -9.921875 3.84375 -9.921875 C 6 -9.921875 7.09375 -8.21875 7.09375 -4.78125 Z M 5.84375 -4.890625 C 5.84375 -7.546875 5.1875 -8.828125 3.84375 -8.828125 C 2.515625 -8.828125 1.859375 -7.5625 1.859375 -4.84375 C 1.859375 -2.125 2.515625 -0.8125 3.828125 -0.8125 C 5.1875 -0.8125 5.84375 -2.078125 5.84375 -4.890625 Z M 5.84375 -4.890625 "/>
</g>
<g id="glyph-3-1-c3fee500">
<path d="M 2.671875 0 C 2.671875 0 1.21875 0 1.21875 0 C 1.21875 0 1.21875 -1.453125 1.21875 -1.453125 C 1.21875 -1.453125 2.671875 -1.453125 2.671875 -1.453125 C 2.671875 -1.453125 2.671875 0 2.671875 0 Z M 2.671875 0 "/>
</g>
<g id="glyph-4-0-c3fee500">
<path d="M 7.1875 -3.296875 C 7.1875 -1.1875 5.78125 0.203125 3.78125 0.203125 C 2.015625 0.203125 0.890625 -0.578125 0.484375 -2.546875 C 0.484375 -2.546875 1.71875 -2.546875 1.71875 -2.546875 C 2.015625 -1.421875 2.671875 -0.875 3.75 -0.875 C 5.09375 -0.875 5.921875 -1.6875 5.921875 -3.125 C 5.921875 -4.59375 5.078125 -5.453125 3.75 -5.453125 C 2.984375 -5.453125 2.5 -5.203125 1.9375 -4.515625 C 1.9375 -4.515625 0.796875 -4.515625 0.796875 -4.515625 C 0.796875 -4.515625 1.546875 -9.71875 1.546875 -9.71875 C 1.546875 -9.71875 6.65625 -9.71875 6.65625 -9.71875 C 6.65625 -9.71875 6.65625 -8.5 6.65625 -8.5 C 6.65625 -8.5 2.53125 -8.5 2.53125 -8.5 C 2.53125 -8.5 2.140625 -5.9375 2.140625 -5.9375 C 2.71875 -6.359375 3.28125 -6.53125 3.96875 -6.53125 C 5.875 -6.53125 7.1875 -5.25 7.1875 -3.296875 Z M 7.1875 -3.296875 "/>
</g>
<g id="glyph-5-0-c3fee500">
<path d="M 4.859375 0 C 4.859375 0 3.625 0 3.625 0 C 3.625 0 3.625 -7.0625 3.625 -7.0625 C 3.625 -7.0625 1.421875 -7.0625 1.421875 -7.0625 C 1.421875 -7.0625 1.421875 -7.953125 1.421875 -7.953125 C 3.328125 -8.1875 3.609375 -8.40625 4.046875 -9.921875 C 4.046875 -9.921875 4.859375 -9.921875 4.859375 -9.921875 C 4.859375 -9.921875 4.859375 0 4.859375 0 Z M 4.859375 0 "/>
</g>
<g id="glyph-5-1-c3fee500">
<path d="M 2.671875 0 C 2.671875 0 1.21875 0 1.21875 0 C 1.21875 0 1.21875 -1.453125 1.21875 -1.453125 C 1.21875 -1.453125 2.671875 -1.453125 2.671875 -1.453125 C 2.671875 -1.453125 2.671875 0 2.671875 0 Z M 2.671875 0 "/>
</g>
<g id="glyph-6-0-c3fee500">
<path d="M 7.09375 -4.78125 C 7.09375 -1.515625 5.953125 0.203125 3.84375 0.203125 C 1.71875 0.203125 0.609375 -1.515625 0.609375 -4.859375 C 0.609375 -8.1875 1.703125 -9.921875 3.84375 -9.921875 C 6 -9.921875 7.09375 -8.21875 7.09375 -4.78125 Z M 5.84375 -4.890625 C 5.84375 -7.546875 5.1875 -8.828125 3.84375 -8.828125 C 2.515625 -8.828125 1.859375 -7.5625 1.859375 -4.84375 C 1.859375 -2.125 2.515625 -0.8125 3.828125 -0.8125 C 5.1875 -0.8125 5.84375 -2.078125 5.84375 -4.890625 Z M 5.84375 -4.890625 "/>
</g>
</g>
<clipPath id="clip-0-c3fee500">
<path clip-rule="nonzero" d="M 130 107 L 564 107 L 564 361 L 130 361 Z M 130 107 "/>
</clipPath>
<clipPath id="clip-1-c3fee500">
<path clip-rule="nonzero" d="M 246 40 L 564 40 L 564 361 L 246 361 Z M 246 40 "/>
</clipPath>
</defs>
<rect x="-60" y="-40" width="720" height="480" fill="rgb(100%, 100%, 100%)" fill-opacity="1"/>
<path fill-rule="nonzero" fill="rgb(100%, 100%, 100%)" fill-opacity="1" d="M 44 361 L 584 361 L 584 16 L 44 16 Z M 44 361 "/>
<path fill="none" stroke-width="1" stroke-linecap="butt" stroke-linejoin="miter" stroke="rgb(0%, 0%, 0%)" stroke-opacity="0.12" stroke-miterlimit="1.154701" d="M 68.546875 361 L 68.546875 16 "/>
<path fill="none" stroke-width="1" stroke-linecap="butt" stroke-linejoin="miter" stroke="rgb(0%, 0%, 0%)" stroke-opacity="0.12" stroke-miterlimit="1.154701" d="M 314 361 L 314 16 "/>
<path fill="none" stroke-width="1" stroke-linecap="butt" stroke-linejoin="miter" stroke="rgb(0%, 0%, 0%)" stroke-opacity="0.12" stroke-miterlimit="1.154701" d="M 559.453125 361 L 559.453125 16 "/>
<path fill="none" stroke-width="1" stroke-linecap="butt" stroke-linejoin="miter" stroke="rgb(0%, 0%, 0%)" stroke-opacity="0.12" stroke-miterlimit="1.154701" d="M 44 332.25 L 584 332.25 "/>
<path fill="none" stroke-width="1" stroke-linecap="butt" stroke-linejoin="miter" stroke="rgb(0%, 0%, 0%)" stroke-opacity="0.12" stroke-miterlimit="1.154701" d="M 44 188.5 L 584 188.5 "/>
<path fill="none" stroke-width="1" stroke-linecap="butt" stroke-linejoin="miter" stroke="rgb(0%, 0%, 0%)" stroke-opacity="0.12" stroke-miterlimit="1.154701" d="M 44 44.75 L 584 44.75 "/>
<g fill="rgb(0%, 0%, 0%)" fill-opacity="1">
<use xlink:href="#glyph-0-0-c3fee500" x="58.815456" y="382.258"/>
</g>
<g fill="rgb(0%, 0%, 0%)" fill-opacity="1">
<use xlink:href="#glyph-0-1-c3fee500" x="66.599456" y="382.258"/>
</g>
<g fill="rgb(0%, 0%, 0%)" fill-opacity="1">
<use xlink:href="#glyph-0-0-c3fee500" x="70.491456" y="382.258"/>
</g>
<g fill="rgb(0%, 0%, 0%)" fill-opacity="1">
<use xlink:href="#glyph-1-0-c3fee500" x="304.27" y="382.258"/>
</g>
<g fill="rgb(0%, 0%, 0%)" fill-opacity="1">
<use xlink:href="#glyph-1-1-c3fee500" x="312.054" y="382.258"/>
</g>
<g fill="rgb(0%, 0%, 0%)" fill-opacity="1">
<use xlink:href="#glyph-1-2-c3fee500" x="315.946" y="382.258"/>
</g>
<g fill="rgb(0%, 0%, 0%)" fill-opacity="1">
<use xlink:href="#glyph-1-3-c3fee500" x="549.724529" y="382.258"/>
</g>
<g fill="rgb(0%, 0%, 0%)" fill-opacity="1">
<use xlink:href="#glyph-1-1-c3fee500" x="557.508529" y="382.258"/>
</g>
<g fill="rgb(0%, 0%, 0%)" fill-opacity="1">
<use xlink:href="#glyph-1-0-c3fee500" x="561.400529" y="382.258"/>
</g>
<g fill="rgb(0%, 0%, 0%)" fill-opacity="1">
<use xlink:href="#glyph-2-0-c3fee500" x="14.540001" y="337.353"/>
</g>
<g fill="rgb(0%, 0%, 0%)" fill-opacity="1">
<use xlink:href="#glyph-2-1-c3fee500" x="22.324001" y="337.353"/>
</g>
<g fill="rgb(0%, 0%, 0%)" fill-opacity="1">
<use xlink:href="#glyph-0-0-c3fee500" x="26.216001" y="337.353"/>
</g>
<g fill="rgb(0%, 0%, 0%)" fill-opacity="1">
<use xlink:href="#glyph-3-0-c3fee500" x="14.540001" y="193.603"/>
</g>
<g fill="rgb(0%, 0%, 0%)" fill-opacity="1">
<use xlink:href="#glyph-3-1-c3fee500" x="22.324001" y="193.603"/>
</g>
<g fill="rgb(0%, 0%, 0%)" fill-opacity="1">
<use xlink:href="#glyph-4-0-c3fee500" x="26.216001" y="193.603"/>
</g>
<g fill="rgb(0%, 0%, 0%)" fill-opacity="1">
<use xlink:href="#glyph-5-0-c3fee500" x="14.540001" y="49.853"/>
</g>
<g fill="rgb(0%, 0%, 0%)" fill-opacity="1">
<use xlink:href="#glyph-5-1-c3fee500" x="22.324001" y="49.853"/>
</g>
<g fill="rgb(0%, 0%, 0%)" fill-opacity="1">
<use xlink:href="#glyph-6-0-c3fee500" x="26.216001" y="49.853"/>
</g>
<path fill-rule="nonzero" fill="rgb(100%, 0%, 0%)" fill-opacity="1" d="M 71.367188 332.25 C 71.367188 328.488281 65.726562 328.488281 65.726562 332.25 C 65.726562 336.011719 71.367188 336.011719 71.367188 332.25 Z M 71.367188 332.25 "/>
<path fill-rule="nonzero" fill="rgb(100%, 0%, 0%)" fill-opacity="1" d="M 97.203125 331.453125 C 97.203125 327.695312 91.5625 327.695312 91.5625 331.453125 C 91.5625 335.214844 97.203125 335.214844 97.203125 331.453125 Z M 97.203125 331.453125 "/>
<path fill-rule="nonzero" fill="rgb(100%, 0%, 0%)" fill-opacity="1" d="M 123.039062 329.0625 C 123.039062 325.304688 117.398438 325.304688 117.398438 329.0625 C 117.398438 332.824219 123.039062 332.824219 123.039062 329.0625 Z M 123.039062 329.0625 "/>
<path fill-rule="nonzero" fill="rgb(100%, 0%, 0%)" fill-opacity="1" d="M 148.878906 325.082031 C 148.878906 321.324219 143.238281 321.324219 143.238281 325.082031 C 143.238281 328.84375 148.878906 328.84375 148.878906 325.082031 Z M 148.878906 325.082031 "/>
<path fill-rule="nonzero" fill="rgb(100%, 0%, 0%)" fill-opacity="1" d="M 174.714844 319.507812 C 174.714844 315.746094 169.074219 315.746094 169.074219 319.507812 C 169.074219 323.269531 174.714844 323.269531 174.714844 319.507812 Z M 174.714844 319.507812 "/>
<path fill-rule="nonzero" fill="rgb(100%, 0%, 0%)" fill-opacity="1" d="M 200.550781 312.339844 C 200.550781 308.578125 194.910156 308.578125 194.910156 312.339844 C 194.910156 316.101562 200.550781 316.101562 200.550781 312.339844 Z M 200.550781 312.339844 "/>
<path fill-rule="nonzero" fill="rgb(100%, 0%, 0%)" fill-opacity="1" d="M 226.390625 303.578125 C 226.390625 299.820312 220.75 299.820312 220.75 303.578125 C 220.75 307.339844 226.390625 307.339844 226.390625 303.578125 Z M 226.390625 303.578125 "/>
<path fill-rule="nonzero" fill="rgb(100%, 0%, 0%)" fill-opacity="1" d="M 252.226562 293.226562 C 252.226562 289.464844 246.585938 289.464844 246.585938 293.226562 C 246.585938 296.988281 252.226562 296.988281 252.226562 293.226562 Z M 252.226562 293.226562 "/>
<path fill-rule="nonzero" fill="rgb(100%, 0%, 0%)" fill-opacity="1" d="M 278.0625 281.28125 C 278.0625 277.519531 272.425781 277.519531 272.425781 281.28125 C 272.425781 285.039062 278.0625 285.039062 278.0625 281.28125 Z M 278.0625 281.28125 "/>
<path fill-rule="nonzero" fill="rgb(100%, 0%, 0%)" fill-opacity="1" d="M 303.902344 267.742188 C 303.902344 263.980469 298.261719 263.980469 298.261719 267.742188 C 298.261719 271.5 303.902344 271.5 303.902344 267.742188 Z M 303.902344 267.742188 "/>
<path fill-rule="nonzero" fill="rgb(100%, 0%, 0%)" fill-opacity="1" d="M 329.738281 252.609375 C 329.738281 248.851562 324.097656 248.851562 324.097656 252.609375 C 324.097656 256.371094 329.738281 256.371094 329.738281 252.609375 Z M 329.738281 252.609375 "/>
<path fill-rule="nonzero" fill="rgb(100%, 0%, 0%)" fill-opacity="1" d="M 355.574219 235.886719 C 355.574219 232.125 349.9375 232.125 349.9375 235.886719 C 349.9375 239.644531 355.574219 239.644531 355.574219 235.886719 Z M 355.574219 235.886719 "/>
<path fill-rule="nonzero" fill="rgb(100%, 0%, 0%)" fill-opacity="1" d="M 381.414062 217.570312 C 381.414062 213.808594 375.773438 213.808594 375.773438 217.570312 C 375.773438 221.328125 381.414062 221.328125 381.414062 217.570312 Z M 381.414062 217.570312 "/>
<path fill-rule="nonzero" fill="rgb(100%, 0%, 0%)" fill-opacity="1" d="M 407.25 197.660156 C 407.25 193.898438 401.609375 193.898438 401.609375 197.660156 C 401.609375 201.417969 407.25 201.417969 407.25 197.660156 Z M 407.25 197.660156 "/>
<path fill-rule="nonzero" fill="rgb(100%, 0%, 0%)" fill-opacity="1" d="M 433.089844 176.15625 C 433.089844 172.394531 427.449219 172.394531 427.449219 176.15625 C 427.449219 179.914062 433.089844 179.914062 433.089844 176.15625 Z M 433.089844 176.15625 "/>
<path fill-rule="nonzero" fill="rgb(100%, 0%, 0%)" fill-opacity="1" d="M 458.925781 153.058594 C 458.925781 149.300781 453.285156 149.300781 453.285156 153.058594 C 453.285156 156.820312 458.925781 156.820312 458.925781 153.058594 Z M 458.925781 153.058594 "/>
<path fill-rule="nonzero" fill="rgb(100%, 0%, 0%)" fill-opacity="1" d="M 484.761719 128.371094 C 484.761719 124.613281 479.121094 124.613281 479.121094 128.371094 C 479.121094 132.132812 484.761719 132.132812 484.761719 128.371094 Z M 484.761719 128.371094 "/>
<path fill-rule="nonzero" fill="rgb(100%, 0%, 0%)" fill-opacity="1" d="M 510.601562 102.089844 C 510.601562 98.332031 504.960938 98.332031 504.960938 102.089844 C 504.960938 105.851562 510.601562 105.851562 510.601562 102.089844 Z M 510.601562 102.089844 "/>
<path fill-rule="nonzero" fill="rgb(100%, 0%, 0%)" fill-opacity="1" d="M 536.4375 74.214844 C 536.4375 70.457031 530.796875 70.457031 530.796875 74.214844 C 530.796875 77.976562 536.4375 77.976562 536.4375 74.214844 Z M 536.4375 74.214844 "/>
<path fill-rule="nonzero" fill="rgb(100%, 0%, 0%)" fill-opacity="1" d="M 562.273438 44.75 C 562.273438 40.988281 556.632812 40.988281 556.632812 44.75 C 556.632812 48.511719 562.273438 48.511719 562.273438 44.75 Z M 562.273438 44.75 "/>
<path fill="none" stroke-width="1.5" stroke-linecap="butt" stroke-linejoin="miter" stroke="rgb(0%, 44.705883%, 69.803923%)" stroke-opacity="1" stroke-dasharray="4.5 4.5" stroke-miterlimit="2" d="M 68.546875 332.25 L 78.460938 330.796875 L 83.421875 330.070312 L 88.378906 329.347656 L 93.339844 328.621094 L 98.296875 327.894531 L 103.257812 327.167969 L 113.171875 325.714844 L 118.132812 324.988281 L 123.089844 324.265625 L 128.050781 323.539062 L 133.007812 322.8125 L 137.96875 322.085938 L 147.882812 320.632812 L 152.84375 319.90625 L 157.800781 319.183594 L 162.761719 318.457031 L 172.675781 317.003906 L 177.636719 316.277344 L 182.59375 315.550781 L 187.554688 314.824219 L 192.511719 314.101562 L 197.472656 313.375 L 207.386719 311.921875 L 212.347656 311.195312 L 217.304688 310.46875 L 222.265625 309.742188 L 227.222656 309.019531 L 232.183594 308.292969 L 242.097656 306.839844 L 247.058594 306.113281 L 252.015625 305.386719 L 256.976562 304.660156 L 261.933594 303.9375 L 266.890625 303.210938 L 271.851562 302.484375 L 276.808594 301.757812 L 281.769531 301.03125 L 286.726562 300.304688 L 291.6875 299.578125 L 296.644531 298.855469 L 301.601562 298.128906 L 306.5625 297.402344 L 311.519531 296.675781 L 316.480469 295.949219 L 321.4375 295.222656 L 326.398438 294.496094 L 331.355469 293.769531 L 336.3125 293.046875 L 341.273438 292.320312 L 346.230469 291.59375 L 351.191406 290.867188 L 361.105469 289.414062 L 366.066406 288.6875 L 371.023438 287.964844 L 375.984375 287.238281 L 380.941406 286.511719 L 385.902344 285.785156 L 395.816406 284.332031 L 400.777344 283.605469 L 405.734375 282.882812 L 410.695312 282.15625 L 415.652344 281.429688 L 420.613281 280.703125 L 430.527344 279.25 L 435.488281 278.523438 L 440.445312 277.800781 L 445.40625 277.074219 L 455.320312 275.621094 L 460.28125 274.894531 L 465.238281 274.167969 L 470.199219 273.441406 L 475.15625 272.71875 L 480.117188 271.992188 L 490.03125 270.539062 L 494.992188 269.8125 L 499.949219 269.085938 L 504.910156 268.359375 L 509.867188 267.636719 L 514.828125 266.910156 L 524.742188 265.457031 L 529.703125 264.730469 L 534.660156 264.003906 L 539.621094 263.277344 L 544.578125 262.554688 L 549.539062 261.828125 L 559.453125 260.375 "/>
<g clip-path="url(#clip-0-c3fee500)">
<path fill="none" stroke-width="1.5" stroke-linecap="butt" stroke-linejoin="miter" stroke="rgb(90.196079%, 62.352943%, 0%)" stroke-opacity="1" stroke-dasharray="4.5 4.5" stroke-miterlimit="2" d="M 134.511719 361 L 137.96875 358.976562 L 142.925781 356.070312 L 147.882812 353.167969 L 152.84375 350.265625 L 157.800781 347.359375 L 162.761719 344.457031 L 167.71875 341.550781 L 172.675781 338.648438 L 177.636719 335.742188 L 182.59375 332.839844 L 187.554688 329.9375 L 192.511719 327.03125 L 197.472656 324.128906 L 202.429688 321.222656 L 207.386719 318.320312 L 212.347656 315.414062 L 217.304688 312.511719 L 222.265625 309.609375 L 227.222656 306.703125 L 232.183594 303.800781 L 237.140625 300.894531 L 242.097656 297.992188 L 247.058594 295.085938 L 252.015625 292.183594 L 256.976562 289.277344 L 266.890625 283.472656 L 271.851562 280.566406 L 276.808594 277.664062 L 281.769531 274.757812 L 286.726562 271.855469 L 291.6875 268.949219 L 301.601562 263.144531 L 306.5625 260.238281 L 311.519531 257.335938 L 316.480469 254.429688 L 321.4375 251.527344 L 326.398438 248.621094 L 336.3125 242.816406 L 341.273438 239.910156 L 346.230469 237.007812 L 351.191406 234.101562 L 356.148438 231.199219 L 361.105469 228.292969 L 366.066406 225.390625 L 371.023438 222.488281 L 375.984375 219.582031 L 380.941406 216.679688 L 385.902344 213.773438 L 390.859375 210.871094 L 395.816406 207.964844 L 400.777344 205.0625 L 405.734375 202.15625 L 410.695312 199.253906 L 415.652344 196.351562 L 420.613281 193.445312 L 425.570312 190.542969 L 430.527344 187.636719 L 435.488281 184.734375 L 440.445312 181.828125 L 445.40625 178.925781 L 450.363281 176.023438 L 455.320312 173.117188 L 460.28125 170.214844 L 465.238281 167.308594 L 470.199219 164.40625 L 475.15625 161.5 L 480.117188 158.597656 L 485.074219 155.695312 L 490.03125 152.789062 L 494.992188 149.886719 L 499.949219 146.980469 L 504.910156 144.078125 L 509.867188 141.171875 L 514.828125 138.269531 L 519.785156 135.363281 L 524.742188 132.460938 L 529.703125 129.558594 L 534.660156 126.652344 L 539.621094 123.75 L 544.578125 120.84375 L 549.539062 117.941406 L 554.496094 115.035156 L 559.453125 112.132812 "/>
</g>
<g clip-path="url(#clip-1-c3fee500)">
<path fill="none" stroke-width="1.5" stroke-linecap="butt" stroke-linejoin="miter" stroke="rgb(0%, 61.960787%, 45.09804%)" stroke-opacity="1" stroke-dasharray="4.5 4.5" stroke-miterlimit="2" d="M 250.882812 361 L 252.015625 359.839844 L 256.976562 354.757812 L 266.890625 344.59375 L 271.851562 339.511719 L 276.808594 334.429688 L 281.769531 329.347656 L 286.726562 324.265625 L 291.6875 319.183594 L 301.601562 309.019531 L 306.5625 303.9375 L 311.519531 298.855469 L 316.480469 293.769531 L 321.4375 288.6875 L 326.398438 283.605469 L 336.3125 273.441406 L 341.273438 268.359375 L 346.230469 263.277344 L 351.191406 258.195312 L 361.105469 248.03125 L 366.066406 242.949219 L 371.023438 237.867188 L 375.984375 232.785156 L 380.941406 227.703125 L 385.902344 222.621094 L 395.816406 212.457031 L 400.777344 207.375 L 405.734375 202.292969 L 410.695312 197.210938 L 415.652344 192.128906 L 420.613281 187.046875 L 430.527344 176.882812 L 435.488281 171.800781 L 440.445312 166.71875 L 445.40625 161.636719 L 455.320312 151.472656 L 460.28125 146.390625 L 465.238281 141.308594 L 470.199219 136.226562 L 475.15625 131.144531 L 480.117188 126.0625 L 490.03125 115.898438 L 494.992188 110.816406 L 499.949219 105.734375 L 504.910156 100.652344 L 509.867188 95.570312 L 514.828125 90.488281 L 524.742188 80.324219 L 529.703125 75.242188 L 534.660156 70.160156 L 539.621094 65.078125 L 544.578125 59.996094 L 549.539062 54.914062 L 559.453125 44.75 "/>
</g>
<path fill="none" stroke-width="1.5" stroke-linecap="butt" stroke-linejoin="miter" stroke="rgb(0%, 0%, 0%)" stroke-opacity="1" stroke-miterlimit="2" d="M 68.546875 332.25 L 78.460938 330.796875 L 83.421875 330.070312 L 88.378906 329.347656 L 93.339844 328.621094 L 98.296875 327.894531 L 103.257812 327.167969 L 113.171875 325.714844 L 118.132812 324.988281 L 123.089844 324.265625 L 128.050781 323.539062 L 133.007812 322.8125 L 137.96875 322.085938 L 147.882812 320.632812 L 152.84375 319.90625 L 157.800781 319.183594 L 162.761719 318.457031 L 172.675781 317.003906 L 177.636719 316.277344 L 182.59375 315.550781 L 187.554688 314.824219 L 192.511719 314.101562 L 197.472656 313.375 L 207.386719 311.921875 L 212.347656 311.195312 L 217.304688 310.46875 L 222.265625 309.609375 L 227.222656 306.703125 L 232.183594 303.800781 L 237.140625 300.894531 L 242.097656 297.992188 L 247.058594 295.085938 L 252.015625 292.183594 L 256.976562 289.277344 L 266.890625 283.472656 L 271.851562 280.566406 L 276.808594 277.664062 L 281.769531 274.757812 L 286.726562 271.855469 L 291.6875 268.949219 L 301.601562 263.144531 L 306.5625 260.238281 L 311.519531 257.335938 L 316.480469 254.429688 L 321.4375 251.527344 L 326.398438 248.621094 L 336.3125 242.816406 L 341.273438 239.910156 L 346.230469 237.007812 L 351.191406 234.101562 L 356.148438 231.199219 L 361.105469 228.292969 L 366.066406 225.390625 L 371.023438 222.488281 L 375.984375 219.582031 L 380.941406 216.679688 L 385.902344 213.773438 L 390.859375 210.871094 L 395.816406 207.964844 L 400.777344 205.0625 L 405.734375 202.15625 L 410.695312 197.210938 L 415.652344 192.128906 L 420.613281 187.046875 L 430.527344 176.882812 L 435.488281 171.800781 L 440.445312 166.71875 L 445.40625 161.636719 L 455.320312 151.472656 L 460.28125 146.390625 L 465.238281 141.308594 L 470.199219 136.226562 L 475.15625 131.144531 L 480.117188 126.0625 L 490.03125 115.898438 L 494.992188 110.816406 L 499.949219 105.734375 L 504.910156 100.652344 L 509.867188 95.570312 L 514.828125 90.488281 L 524.742188 80.324219 L 529.703125 75.242188 L 534.660156 70.160156 L 539.621094 65.078125 L 544.578125 59.996094 L 549.539062 54.914062 L 559.453125 44.75 "/>
<path fill="none" stroke-width="1" stroke-linecap="butt" stroke-linejoin="miter" stroke="rgb(0%, 0%, 0%)" stroke-opacity="1" stroke-miterlimit="1.154701" d="M 68.546875 361.5 L 68.546875 366.5 "/>
<path fill="none" stroke-width="1" stroke-linecap="butt" stroke-linejoin="miter" stroke="rgb(0%, 0%, 0%)" stroke-opacity="1" stroke-miterlimit="1.154701" d="M 314 361.5 L 314 366.5 "/>
<path fill="none" stroke-width="1" stroke-linecap="butt" stroke-linejoin="miter" stroke="rgb(0%, 0%, 0%)" stroke-opacity="1" stroke-miterlimit="1.154701" d="M 559.453125 361.5 L 559.453125 366.5 "/>
<path fill="none" stroke-width="1" stroke-linecap="butt" stroke-linejoin="miter" stroke="rgb(0%, 0%, 0%)" stroke-opacity="1" stroke-miterlimit="1.154701" d="M 43.5 332.25 L 38.5 332.25 "/>
<path fill="none" stroke-width="1" stroke-linecap="butt" stroke-linejoin="miter" stroke="rgb(0%, 0%, 0%)" stroke-opacity="1" stroke-miterlimit="1.154701" d="M 43.5 188.5 L 38.5 188.5 "/>
<path fill="none" stroke-width="1" stroke-linecap="butt" stroke-linejoin="miter" stroke="rgb(0%, 0%, 0%)" stroke-opacity="1" stroke-miterlimit="1.154701" d="M 43.5 44.75 L 38.5 44.75 "/>
<path fill="none" stroke-width="1" stroke-linecap="butt" stroke-linejoin="miter" stroke="rgb(0%, 0%, 0%)" stroke-opacity="1" stroke-miterlimit="1.154701" d="M 43.5 361 L 584.5 361 "/>
<path fill="none" stroke-width="1" stroke-linecap="butt" stroke-linejoin="miter" stroke="rgb(0%, 0%, 0%)" stroke-opacity="1" stroke-miterlimit="1.154701" d="M 44 361.5 L 44 15.5 "/>
<path fill="none" stroke-width="1" stroke-linecap="butt" stroke-linejoin="miter" stroke="rgb(0%, 0%, 0%)" stroke-opacity="1" stroke-miterlimit="1.154701" d="M 43.5 16 L 584.5 16 "/>
<path fill="none" stroke-width="1" stroke-linecap="butt" stroke-linejoin="miter" stroke="rgb(0%, 0%, 0%)" stroke-opacity="1" stroke-miterlimit="1.154701" d="M 584 361.5 L 584 15.5 "/>
</svg>
