<?xml version="1.0" encoding="utf-8"?>
<svg xmlns="http://www.w3.org/2000/svg" xmlns:xlink="http://www.w3.org/1999/xlink" width="600" height="400" viewBox="0 0 2400 1600">
<defs>
  <clipPath id="clip0300">
    <rect x="0" y="0" width="2400" height="1600"/>
  </clipPath>
</defs>
<path clip-path="url(#clip0300)" d="
M0 1600 L2400 1600 L2400 0 L0 0  Z
  " fill="#ffffff" fill-rule="evenodd" fill-opacity="1"/>
<defs>
  <clipPath id="clip0301">
    <rect x="480" y="0" width="1681" height="1600"/>
  </clipPath>
</defs>
<path clip-path="url(#clip0300)" d="
M182.008 1487.47 L2352.76 1487.47 L2352.76 47.2441 L182.008 47.2441  Z
  " fill="#ffffff" fill-rule="evenodd" fill-opacity="1"/>
<defs>
  <clipPath id="clip0302">
    <rect x="182" y="47" width="2172" height="1441"/>
  </clipPath>
</defs>
<polyline clip-path="url(#clip0302)" style="stroke:#000000; stroke-width:2; stroke-opacity:0.1; fill:none" points="
  243.444,1487.47 243.444,47.2441 
  "/>
<polyline clip-path="url(#clip0302)" style="stroke:#000000; stroke-width:2; stroke-opacity:0.1; fill:none" points="
  755.413,1487.47 755.413,47.2441 
  "/>
<polyline clip-path="url(#clip0302)" style="stroke:#000000; stroke-width:2; stroke-opacity:0.1; fill:none" points="
  1267.38,1487.47 1267.38,47.2441 
  "/>
<polyline clip-path="url(#clip0302)" style="stroke:#000000; stroke-width:2; stroke-opacity:0.1; fill:none" points="
  1779.35,1487.47 1779.35,47.2441 
  "/>
<polyline clip-path="url(#clip0302)" style="stroke:#000000; stroke-width:2; stroke-opacity:0.1; fill:none" points="
  2291.32,1487.47 2291.32,47.2441 
  "/>
<polyline clip-path="url(#clip0302)" style="stroke:#000000; stroke-width:2; stroke-opacity:0.1; fill:none" points="
  182.008,1466.19 2352.76,1466.19 
  "/>
<polyline clip-path="url(#clip0302)" style="stroke:#000000; stroke-width:2; stroke-opacity:0.1; fill:none" points="
  182.008,1111.45 2352.76,1111.45 
  "/>
<polyline clip-path="url(#clip0302)" style="stroke:#000000; stroke-width:2; stroke-opacity:0.1; fill:none" points="
  182.008,756.717 2352.76,756.717 
  "/>
<polyline clip-path="url(#clip0302)" style="stroke:#000000; stroke-width:2; stroke-opacity:0.1; fill:none" points="
  182.008,401.981 2352.76,401.981 
  "/>
<polyline clip-path="url(#clip0300)" style="stroke:#000000; stroke-width:4; stroke-opacity:1; fill:none" points="
  182.008,1487.47 2352.76,1487.47 
  "/>
<polyline clip-path="url(#clip0300)" style="stroke:#000000; stroke-width:4; stroke-opacity:1; fill:none" points="
  182.008,1487.47 182.008,47.2441 
  "/>
<polyline clip-path="url(#clip0300)" style="stroke:#000000; stroke-width:4; stroke-opacity:1; fill:none" points="
  243.444,1487.47 243.444,1470.19 
  "/>
<polyline clip-path="url(#clip0300)" style="stroke:#000000; stroke-width:4; stroke-opacity:1; fill:none" points="
  755.413,1487.47 755.413,1470.19 
  "/>
<polyline clip-path="url(#clip0300)" style="stroke:#000000; stroke-width:4; stroke-opacity:1; fill:none" points="
  1267.38,1487.47 1267.38,1470.19 
  "/>
<polyline clip-path="url(#clip0300)" style="stroke:#000000; stroke-width:4; stroke-opacity:1; fill:none" points="
  1779.35,1487.47 1779.35,1470.19 
  "/>
<polyline clip-path="url(#clip0300)" style="stroke:#000000; stroke-width:4; stroke-opacity:1; fill:none" points="
  2291.32,1487.47 2291.32,1470.19 
  "/>
<polyline clip-path="url(#clip0300)" style="stroke:#000000; stroke-width:4; stroke-opacity:1; fill:none" points="
  182.008,1466.19 208.057,1466.19 
  "/>
<polyline clip-path="url(#clip0300)" style="stroke:#000000; stroke-width:4; stroke-opacity:1; fill:none" points="
  182.008,1111.45 208.057,1111.45 
  "/>
<polyline clip-path="url(#clip0300)" style="stroke:#000000; stroke-width:4; stroke-opacity:1; fill:none" points="
  182.008,756.717 208.057,756.717 
  "/>
<polyline clip-path="url(#clip0300)" style="stroke:#000000; stroke-width:4; stroke-opacity:1; fill:none" points="
  182.008,401.981 208.057,401.981 
  "/>
<g clip-path="url(#clip0300)">
<text style="fill:#000000; fill-opacity:1; font-family:Arial,Helvetica Neue,Helvetica,sans-serif; font-size:48px; text-anchor:middle;" transform="rotate(0, 243.444, 1541.47)" x="243.444" y="1541.47">0.00</text>
</g>
<g clip-path="url(#clip0300)">
<text style="fill:#000000; fill-opacity:1; font-family:Arial,Helvetica Neue,Helvetica,sans-serif; font-size:48px; text-anchor:middle;" transform="rotate(0, 755.413, 1541.47)" x="755.413" y="1541.47">0.25</text>
</g>
<g clip-path="url(#clip0300)">
<text style="fill:#000000; fill-opacity:1; font-family:Arial,Helvetica Neue,Helvetica,sans-serif; font-size:48px; text-anchor:middle;" transform="rotate(0, 1267.38, 1541.47)" x="1267.38" y="1541.47">0.50</text>
</g>
<g clip-path="url(#clip0300)">
<text style="fill:#000000; fill-opacity:1; font-family:Arial,Helvetica Neue,Helvetica,sans-serif; font-size:48px; text-anchor:middle;" transform="rotate(0, 1779.35, 1541.47)" x="1779.35" y="1541.47">0.75</text>
</g>
<g clip-path="url(#clip0300)">
<text style="fill:#000000; fill-opacity:1; font-family:Arial,Helvetica Neue,Helvetica,sans-serif; font-size:48px; text-anchor:middle;" transform="rotate(0, 2291.32, 1541.47)" x="2291.32" y="1541.47">1.00</text>
</g>
<g clip-path="url(#clip0300)">
<text style="fill:#000000; fill-opacity:1; font-family:Arial,Helvetica Neue,Helvetica,sans-serif; font-size:48px; text-anchor:end;" transform="rotate(0, 158.008, 1483.69)" x="158.008" y="1483.69">-0.5</text>
</g>
<g clip-path="url(#clip0300)">
<text style="fill:#000000; fill-opacity:1; font-family:Arial,Helvetica Neue,Helvetica,sans-serif; font-size:48px; text-anchor:end;" transform="rotate(0, 158.008, 1128.95)" x="158.008" y="1128.95">0.0</text>
</g>
<g clip-path="url(#clip0300)">
<text style="fill:#000000; fill-opacity:1; font-family:Arial,Helvetica Neue,Helvetica,sans-serif; font-size:48px; text-anchor:end;" transform="rotate(0, 158.008, 774.217)" x="158.008" y="774.217">0.5</text>
</g>
<g clip-path="url(#clip0300)">
<text style="fill:#000000; fill-opacity:1; font-family:Arial,Helvetica Neue,Helvetica,sans-serif; font-size:48px; text-anchor:end;" transform="rotate(0, 158.008, 419.481)" x="158.008" y="419.481">1.0</text>
</g>
<line clip-path="url(#clip0302)" x1="243.444" y1="1111.45" x2="227.444" y2="1095.45" style="stroke:#009af9; stroke-width:3.2; stroke-opacity:1"/>
<line clip-path="url(#clip0302)" x1="243.444" y1="1111.45" x2="227.444" y2="1127.45" style="stroke:#009af9; stroke-width:3.2; stroke-opacity:1"/>
<line clip-path="url(#clip0302)" x1="243.444" y1="1111.45" x2="259.444" y2="1127.45" style="stroke:#009af9; stroke-width:3.2; stroke-opacity:1"/>
<line clip-path="url(#clip0302)" x1="243.444" y1="1111.45" x2="259.444" y2="1095.45" style="stroke:#009af9; stroke-width:3.2; stroke-opacity:1"/>
<line clip-path="url(#clip0302)" x1="448.232" y1="1104.36" x2="432.232" y2="1088.36" style="stroke:#009af9; stroke-width:3.2; stroke-opacity:1"/>
<line clip-path="url(#clip0302)" x1="448.232" y1="1104.36" x2="432.232" y2="1120.36" style="stroke:#009af9; stroke-width:3.2; stroke-opacity:1"/>
<line clip-path="url(#clip0302)" x1="448.232" y1="1104.36" x2="464.232" y2="1120.36" style="stroke:#009af9; stroke-width:3.2; stroke-opacity:1"/>
<line clip-path="url(#clip0302)" x1="448.232" y1="1104.36" x2="464.232" y2="1088.36" style="stroke:#009af9; stroke-width:3.2; stroke-opacity:1"/>
<line clip-path="url(#clip0302)" x1="653.019" y1="1083.07" x2="637.019" y2="1067.07" style="stroke:#009af9; stroke-width:3.2; stroke-opacity:1"/>
<line clip-path="url(#clip0302)" x1="653.019" y1="1083.07" x2="637.019" y2="1099.07" style="stroke:#009af9; stroke-width:3.2; stroke-opacity:1"/>
<line clip-path="url(#clip0302)" x1="653.019" y1="1083.07" x2="669.019" y2="1099.07" style="stroke:#009af9; stroke-width:3.2; stroke-opacity:1"/>
<line clip-path="url(#clip0302)" x1="653.019" y1="1083.07" x2="669.019" y2="1067.07" style="stroke:#009af9; stroke-width:3.2; stroke-opacity:1"/>
<line clip-path="url(#clip0302)" x1="857.807" y1="1047.6" x2="841.807" y2="1031.6" style="stroke:#009af9; stroke-width:3.2; stroke-opacity:1"/>
<line clip-path="url(#clip0302)" x1="857.807" y1="1047.6" x2="841.807" y2="1063.6" style="stroke:#009af9; stroke-width:3.2; stroke-opacity:1"/>
<line clip-path="url(#clip0302)" x1="857.807" y1="1047.6" x2="873.807" y2="1063.6" style="stroke:#009af9; stroke-width:3.2; stroke-opacity:1"/>
<line clip-path="url(#clip0302)" x1="857.807" y1="1047.6" x2="873.807" y2="1031.6" style="stroke:#009af9; stroke-width:3.2; stroke-opacity:1"/>
<line clip-path="url(#clip0302)" x1="1062.59" y1="997.938" x2="1046.59" y2="981.938" style="stroke:#009af9; stroke-width:3.2; stroke-opacity:1"/>
<line clip-path="url(#clip0302)" x1="1062.59" y1="997.938" x2="1046.59" y2="1013.94" style="stroke:#009af9; stroke-width:3.2; stroke-opacity:1"/>
<line clip-path="url(#clip0302)" x1="1062.59" y1="997.938" x2="1078.59" y2="1013.94" style="stroke:#009af9; stroke-width:3.2; stroke-opacity:1"/>
<line clip-path="url(#clip0302)" x1="1062.59" y1="997.938" x2="1078.59" y2="981.938" style="stroke:#009af9; stroke-width:3.2; stroke-opacity:1"/>
<line clip-path="url(#clip0302)" x1="1267.38" y1="934.086" x2="1251.38" y2="918.086" style="stroke:#009af9; stroke-width:3.2; stroke-opacity:1"/>
<line clip-path="url(#clip0302)" x1="1267.38" y1="934.086" x2="1251.38" y2="950.086" style="stroke:#009af9; stroke-width:3.2; stroke-opacity:1"/>
<line clip-path="url(#clip0302)" x1="1267.38" y1="934.086" x2="1283.38" y2="950.086" style="stroke:#009af9; stroke-width:3.2; stroke-opacity:1"/>
<line clip-path="url(#clip0302)" x1="1267.38" y1="934.086" x2="1283.38" y2="918.086" style="stroke:#009af9; stroke-width:3.2; stroke-opacity:1"/>
<line clip-path="url(#clip0302)" x1="1472.17" y1="856.044" x2="1456.17" y2="840.044" style="stroke:#009af9; stroke-width:3.2; stroke-opacity:1"/>
<line clip-path="url(#clip0302)" x1="1472.17" y1="856.044" x2="1456.17" y2="872.044" style="stroke:#009af9; stroke-width:3.2; stroke-opacity:1"/>
<line clip-path="url(#clip0302)" x1="1472.17" y1="856.044" x2="1488.17" y2="872.044" style="stroke:#009af9; stroke-width:3.2; stroke-opacity:1"/>
<line clip-path="url(#clip0302)" x1="1472.17" y1="856.044" x2="1488.17" y2="840.044" style="stroke:#009af9; stroke-width:3.2; stroke-opacity:1"/>
<line clip-path="url(#clip0302)" x1="1676.96" y1="763.812" x2="1660.96" y2="747.812" style="stroke:#009af9; stroke-width:3.2; stroke-opacity:1"/>
<line clip-path="url(#clip0302)" x1="1676.96" y1="763.812" x2="1660.96" y2="779.812" style="stroke:#009af9; stroke-width:3.2; stroke-opacity:1"/>
<line clip-path="url(#clip0302)" x1="1676.96" y1="763.812" x2="1692.96" y2="779.812" style="stroke:#009af9; stroke-width:3.2; stroke-opacity:1"/>
<line clip-path="url(#clip0302)" x1="1676.96" y1="763.812" x2="1692.96" y2="747.812" style="stroke:#009af9; stroke-width:3.2; stroke-opacity:1"/>
<line clip-path="url(#clip0302)" x1="1881.74" y1="657.391" x2="1865.74" y2="641.391" style="stroke:#009af9; stroke-width:3.2; stroke-opacity:1"/>
<line clip-path="url(#clip0302)" x1="1881.74" y1="657.391" x2="1865.74" y2="673.391" style="stroke:#009af9; stroke-width:3.2; stroke-opacity:1"/>
<line clip-path="url(#clip0302)" x1="1881.74" y1="657.391" x2="1897.74" y2="673.391" style="stroke:#009af9; stroke-width:3.2; stroke-opacity:1"/>
<line clip-path="url(#clip0302)" x1="1881.74" y1="657.391" x2="1897.74" y2="641.391" style="stroke:#009af9; stroke-width:3.2; stroke-opacity:1"/>
<line clip-path="url(#clip0302)" x1="2086.53" y1="536.781" x2="2070.53" y2="520.781" style="stroke:#009af9; stroke-width:3.2; stroke-opacity:1"/>
<line clip-path="url(#clip0302)" x1="2086.53" y1="536.781" x2="2070.53" y2="552.781" style="stroke:#009af9; stroke-width:3.2; stroke-opacity:1"/>
<line clip-path="url(#clip0302)" x1="2086.53" y1="536.781" x2="2102.53" y2="552.781" style="stroke:#009af9; stroke-width:3.2; stroke-opacity:1"/>
<line clip-path="url(#clip0302)" x1="2086.53" y1="536.781" x2="2102.53" y2="520.781" style="stroke:#009af9; stroke-width:3.2; stroke-opacity:1"/>
<line clip-path="url(#clip0302)" x1="2291.32" y1="401.981" x2="2275.32" y2="385.981" style="stroke:#009af9; stroke-width:3.2; stroke-opacity:1"/>
<line clip-path="url(#clip0302)" x1="2291.32" y1="401.981" x2="2275.32" y2="417.981" style="stroke:#009af9; stroke-width:3.2; stroke-opacity:1"/>
<line clip-path="url(#clip0302)" x1="2291.32" y1="401.981" x2="2307.32" y2="417.981" style="stroke:#009af9; stroke-width:3.2; stroke-opacity:1"/>
<line clip-path="url(#clip0302)" x1="2291.32" y1="401.981" x2="2307.32" y2="385.981" style="stroke:#009af9; stroke-width:3.2; stroke-opacity:1"/>
<polyline clip-path="url(#clip0302)" style="stroke:#e26f46; stroke-width:4; stroke-opacity:1; fill:none" stroke-dasharray="2, 4" points="
  243.444,1132.74 2291.32,848.949 
  "/>
<polyline clip-path="url(#clip0302)" style="stroke:#3da44d; stroke-width:4; stroke-opacity:1; fill:none" stroke-dasharray="2, 4" points="
  243.444,1281.73 2291.32,572.254 
  "/>
<polyline clip-path="url(#clip0302)" style="stroke:#c271d2; stroke-width:4; stroke-opacity:1; fill:none" stroke-dasharray="2, 4" points="
  243.444,1679.03 2291.32,401.981 
  "/>
<polyline clip-path="url(#clip0302)" style="stroke:#000000; stroke-width:4; stroke-opacity:1; fill:none" points="
  243.444,1132.74 960.201,1033.41 1676.96,785.096 2291.32,401.981 
  "/>
</svg>
