<?xml version="1.0" encoding="utf-8"?>
<svg xmlns="http://www.w3.org/2000/svg" xmlns:xlink="http://www.w3.org/1999/xlink" width="600" height="400" viewBox="0 0 2400 1600">
<defs>
  <clipPath id="clip1100">
    <rect x="0" y="0" width="2400" height="1600"/>
  </clipPath>
</defs>
<path clip-path="url(#clip1100)" d="
M0 1600 L2400 1600 L2400 0 L0 0  Z
  " fill="#ffffff" fill-rule="evenodd" fill-opacity="1"/>
<defs>
  <clipPath id="clip1101">
    <rect x="480" y="0" width="1681" height="1600"/>
  </clipPath>
</defs>
<path clip-path="url(#clip1100)" d="
M162.455 1486.45 L2352.76 1486.45 L2352.76 47.2441 L162.455 47.2441  Z
  " fill="#ffffff" fill-rule="evenodd" fill-opacity="1"/>
<defs>
  <clipPath id="clip1102">
    <rect x="162" y="47" width="2191" height="1440"/>
  </clipPath>
</defs>
<polyline clip-path="url(#clip1102)" style="stroke:#000000; stroke-width:2; stroke-opacity:0.1; fill:none" points="
  224.444,1486.45 224.444,47.2441 
  "/>
<polyline clip-path="url(#clip1102)" style="stroke:#000000; stroke-width:2; stroke-opacity:0.1; fill:none" points="
  741.025,1486.45 741.025,47.2441 
  "/>
<polyline clip-path="url(#clip1102)" style="stroke:#000000; stroke-width:2; stroke-opacity:0.1; fill:none" points="
  1257.61,1486.45 1257.61,47.2441 
  "/>
<polyline clip-path="url(#clip1102)" style="stroke:#000000; stroke-width:2; stroke-opacity:0.1; fill:none" points="
  1774.19,1486.45 1774.19,47.2441 
  "/>
<polyline clip-path="url(#clip1102)" style="stroke:#000000; stroke-width:2; stroke-opacity:0.1; fill:none" points="
  2290.77,1486.45 2290.77,47.2441 
  "/>
<polyline clip-path="url(#clip1102)" style="stroke:#000000; stroke-width:2; stroke-opacity:0.1; fill:none" points="
  162.455,1486.45 2352.76,1486.45 
  "/>
<polyline clip-path="url(#clip1102)" style="stroke:#000000; stroke-width:2; stroke-opacity:0.1; fill:none" points="
  162.455,1006.71 2352.76,1006.71 
  "/>
<polyline clip-path="url(#clip1102)" style="stroke:#000000; stroke-width:2; stroke-opacity:0.1; fill:none" points="
  162.455,526.979 2352.76,526.979 
  "/>
<polyline clip-path="url(#clip1102)" style="stroke:#000000; stroke-width:2; stroke-opacity:0.1; fill:none" points="
  162.455,47.2441 2352.76,47.2441 
  "/>
<polyline clip-path="url(#clip1100)" style="stroke:#000000; stroke-width:4; stroke-opacity:1; fill:none" points="
  162.455,1486.45 2352.76,1486.45 
  "/>
<polyline clip-path="url(#clip1100)" style="stroke:#000000; stroke-width:4; stroke-opacity:1; fill:none" points="
  162.455,1486.45 162.455,47.2441 
  "/>
<polyline clip-path="url(#clip1100)" style="stroke:#000000; stroke-width:4; stroke-opacity:1; fill:none" points="
  224.444,1486.45 224.444,1469.18 
  "/>
<polyline clip-path="url(#clip1100)" style="stroke:#000000; stroke-width:4; stroke-opacity:1; fill:none" points="
  741.025,1486.45 741.025,1469.18 
  "/>
<polyline clip-path="url(#clip1100)" style="stroke:#000000; stroke-width:4; stroke-opacity:1; fill:none" points="
  1257.61,1486.45 1257.61,1469.18 
  "/>
<polyline clip-path="url(#clip1100)" style="stroke:#000000; stroke-width:4; stroke-opacity:1; fill:none" points="
  1774.19,1486.45 1774.19,1469.18 
  "/>
<polyline clip-path="url(#clip1100)" style="stroke:#000000; stroke-width:4; stroke-opacity:1; fill:none" points="
  2290.77,1486.45 2290.77,1469.18 
  "/>
<polyline clip-path="url(#clip1100)" style="stroke:#000000; stroke-width:4; stroke-opacity:1; fill:none" points="
  162.455,1486.45 188.738,1486.45 
  "/>
<polyline clip-path="url(#clip1100)" style="stroke:#000000; stroke-width:4; stroke-opacity:1; fill:none" points="
  162.455,1006.71 188.738,1006.71 
  "/>
<polyline clip-path="url(#clip1100)" style="stroke:#000000; stroke-width:4; stroke-opacity:1; fill:none" points="
  162.455,526.979 188.738,526.979 
  "/>
<polyline clip-path="url(#clip1100)" style="stroke:#000000; stroke-width:4; stroke-opacity:1; fill:none" points="
  162.455,47.2441 188.738,47.2441 
  "/>
<path clip-path="url(#clip1100)" d="M 0 0 M192.454 1508.44 Q188.843 1508.44 187.014 1512 Q185.208 1515.55 185.208 1522.67 Q185.208 1529.78 187.014 1533.35 Q188.843 1536.89 192.454 1536.89 Q196.088 1536.89 197.894 1533.35 Q199.722 1529.78 199.722 1522.67 Q199.722 1515.55 197.894 1512 Q196.088 1508.44 192.454 1508.44 M192.454 1504.73 Q198.264 1504.73 201.319 1509.34 Q204.398 1513.92 204.398 1522.67 Q204.398 1531.4 201.319 1536.01 Q198.264 1540.59 192.454 1540.59 Q186.644 1540.59 183.565 1536.01 Q180.509 1531.4 180.509 1522.67 Q180.509 1513.92 183.565 1509.34 Q186.644 1504.73 192.454 1504.73 Z" fill="#000000" fill-rule="evenodd" fill-opacity="1" /><path clip-path="url(#clip1100)" d="M 0 0 M209.468 1534.04 L214.352 1534.04 L214.352 1539.92 L209.468 1539.92 L209.468 1534.04 Z" fill="#000000" fill-rule="evenodd" fill-opacity="1" /><path clip-path="url(#clip1100)" d="M 0 0 M229.421 1508.44 Q225.81 1508.44 223.981 1512 Q222.176 1515.55 222.176 1522.67 Q222.176 1529.78 223.981 1533.35 Q225.81 1536.89 229.421 1536.89 Q233.055 1536.89 234.861 1533.35 Q236.69 1529.78 236.69 1522.67 Q236.69 1515.55 234.861 1512 Q233.055 1508.44 229.421 1508.44 M229.421 1504.73 Q235.231 1504.73 238.287 1509.34 Q241.366 1513.92 241.366 1522.67 Q241.366 1531.4 238.287 1536.01 Q235.231 1540.59 229.421 1540.59 Q223.611 1540.59 220.532 1536.01 Q217.477 1531.4 217.477 1522.67 Q217.477 1513.92 220.532 1509.34 Q223.611 1504.73 229.421 1504.73 Z" fill="#000000" fill-rule="evenodd" fill-opacity="1" /><path clip-path="url(#clip1100)" d="M 0 0 M256.435 1508.44 Q252.824 1508.44 250.995 1512 Q249.19 1515.55 249.19 1522.67 Q249.19 1529.78 250.995 1533.35 Q252.824 1536.89 256.435 1536.89 Q260.069 1536.89 261.875 1533.35 Q263.703 1529.78 263.703 1522.67 Q263.703 1515.55 261.875 1512 Q260.069 1508.44 256.435 1508.44 M256.435 1504.73 Q262.245 1504.73 265.301 1509.34 Q268.379 1513.92 268.379 1522.67 Q268.379 1531.4 265.301 1536.01 Q262.245 1540.59 256.435 1540.59 Q250.625 1540.59 247.546 1536.01 Q244.491 1531.4 244.491 1522.67 Q244.491 1513.92 247.546 1509.34 Q250.625 1504.73 256.435 1504.73 Z" fill="#000000" fill-rule="evenodd" fill-opacity="1" /><path clip-path="url(#clip1100)" d="M 0 0 M710.331 1508.44 Q706.719 1508.44 704.891 1512 Q703.085 1515.55 703.085 1522.67 Q703.085 1529.78 704.891 1533.35 Q706.719 1536.89 710.331 1536.89 Q713.965 1536.89 715.77 1533.35 Q717.599 1529.78 717.599 1522.67 Q717.599 1515.55 715.77 1512 Q713.965 1508.44 710.331 1508.44 M710.331 1504.73 Q716.141 1504.73 719.196 1509.34 Q722.275 1513.92 722.275 1522.67 Q722.275 1531.4 719.196 1536.01 Q716.141 1540.59 710.331 1540.59 Q704.52 1540.59 701.442 1536.01 Q698.386 1531.4 698.386 1522.67 Q698.386 1513.92 701.442 1509.34 Q704.52 1504.73 710.331 1504.73 Z" fill="#000000" fill-rule="evenodd" fill-opacity="1" /><path clip-path="url(#clip1100)" d="M 0 0 M727.344 1534.04 L732.229 1534.04 L732.229 1539.92 L727.344 1539.92 L727.344 1534.04 Z" fill="#000000" fill-rule="evenodd" fill-opacity="1" /><path clip-path="url(#clip1100)" d="M 0 0 M741.326 1535.98 L757.645 1535.98 L757.645 1539.92 L735.701 1539.92 L735.701 1535.98 Q738.363 1533.23 742.946 1528.6 Q747.553 1523.95 748.733 1522.61 Q750.978 1520.08 751.858 1518.35 Q752.761 1516.59 752.761 1514.9 Q752.761 1512.14 750.816 1510.41 Q748.895 1508.67 745.793 1508.67 Q743.594 1508.67 741.141 1509.43 Q738.71 1510.2 735.932 1511.75 L735.932 1507.03 Q738.756 1505.89 741.21 1505.31 Q743.664 1504.73 745.701 1504.73 Q751.071 1504.73 754.265 1507.42 Q757.46 1510.11 757.46 1514.6 Q757.46 1516.73 756.65 1518.65 Q755.863 1520.54 753.756 1523.14 Q753.178 1523.81 750.076 1527.03 Q746.974 1530.22 741.326 1535.98 Z" fill="#000000" fill-rule="evenodd" fill-opacity="1" /><path clip-path="url(#clip1100)" d="M 0 0 M762.761 1505.36 L781.117 1505.36 L781.117 1509.3 L767.043 1509.3 L767.043 1517.77 Q768.062 1517.42 769.08 1517.26 Q770.099 1517.07 771.117 1517.07 Q776.904 1517.07 780.284 1520.24 Q783.663 1523.42 783.663 1528.83 Q783.663 1534.41 780.191 1537.51 Q776.719 1540.59 770.4 1540.59 Q768.224 1540.59 765.955 1540.22 Q763.71 1539.85 761.302 1539.11 L761.302 1534.41 Q763.386 1535.54 765.608 1536.1 Q767.83 1536.66 770.307 1536.66 Q774.312 1536.66 776.65 1534.55 Q778.988 1532.44 778.988 1528.83 Q778.988 1525.22 776.65 1523.11 Q774.312 1521.01 770.307 1521.01 Q768.432 1521.01 766.557 1521.42 Q764.705 1521.84 762.761 1522.72 L762.761 1505.36 Z" fill="#000000" fill-rule="evenodd" fill-opacity="1" /><path clip-path="url(#clip1100)" d="M 0 0 M1226.11 1508.44 Q1222.5 1508.44 1220.67 1512 Q1218.87 1515.55 1218.87 1522.67 Q1218.87 1529.78 1220.67 1533.35 Q1222.5 1536.89 1226.11 1536.89 Q1229.75 1536.89 1231.55 1533.35 Q1233.38 1529.78 1233.38 1522.67 Q1233.38 1515.55 1231.55 1512 Q1229.75 1508.44 1226.11 1508.44 M1226.11 1504.73 Q1231.92 1504.73 1234.98 1509.34 Q1238.06 1513.92 1238.06 1522.67 Q1238.06 1531.4 1234.98 1536.01 Q1231.92 1540.59 1226.11 1540.59 Q1220.3 1540.59 1217.22 1536.01 Q1214.17 1531.4 1214.17 1522.67 Q1214.17 1513.92 1217.22 1509.34 Q1220.3 1504.73 1226.11 1504.73 Z" fill="#000000" fill-rule="evenodd" fill-opacity="1" /><path clip-path="url(#clip1100)" d="M 0 0 M1243.13 1534.04 L1248.01 1534.04 L1248.01 1539.92 L1243.13 1539.92 L1243.13 1534.04 Z" fill="#000000" fill-rule="evenodd" fill-opacity="1" /><path clip-path="url(#clip1100)" d="M 0 0 M1253.13 1505.36 L1271.48 1505.36 L1271.48 1509.3 L1257.41 1509.3 L1257.41 1517.77 Q1258.43 1517.42 1259.45 1517.26 Q1260.46 1517.07 1261.48 1517.07 Q1267.27 1517.07 1270.65 1520.24 Q1274.03 1523.42 1274.03 1528.83 Q1274.03 1534.41 1270.56 1537.51 Q1267.08 1540.59 1260.77 1540.59 Q1258.59 1540.59 1256.32 1540.22 Q1254.08 1539.85 1251.67 1539.11 L1251.67 1534.41 Q1253.75 1535.54 1255.97 1536.1 Q1258.2 1536.66 1260.67 1536.66 Q1264.68 1536.66 1267.01 1534.55 Q1269.35 1532.44 1269.35 1528.83 Q1269.35 1525.22 1267.01 1523.11 Q1264.68 1521.01 1260.67 1521.01 Q1258.8 1521.01 1256.92 1521.42 Q1255.07 1521.84 1253.13 1522.72 L1253.13 1505.36 Z" fill="#000000" fill-rule="evenodd" fill-opacity="1" /><path clip-path="url(#clip1100)" d="M 0 0 M1289.1 1508.44 Q1285.49 1508.44 1283.66 1512 Q1281.85 1515.55 1281.85 1522.67 Q1281.85 1529.78 1283.66 1533.35 Q1285.49 1536.89 1289.1 1536.89 Q1292.73 1536.89 1294.54 1533.35 Q1296.37 1529.78 1296.37 1522.67 Q1296.37 1515.55 1294.54 1512 Q1292.73 1508.44 1289.1 1508.44 M1289.1 1504.73 Q1294.91 1504.73 1297.96 1509.34 Q1301.04 1513.92 1301.04 1522.67 Q1301.04 1531.4 1297.96 1536.01 Q1294.91 1540.59 1289.1 1540.59 Q1283.29 1540.59 1280.21 1536.01 Q1277.15 1531.4 1277.15 1522.67 Q1277.15 1513.92 1280.21 1509.34 Q1283.29 1504.73 1289.1 1504.73 Z" fill="#000000" fill-rule="evenodd" fill-opacity="1" /><path clip-path="url(#clip1100)" d="M 0 0 M1743.14 1508.44 Q1739.53 1508.44 1737.7 1512 Q1735.9 1515.55 1735.9 1522.67 Q1735.9 1529.78 1737.7 1533.35 Q1739.53 1536.89 1743.14 1536.89 Q1746.78 1536.89 1748.58 1533.35 Q1750.41 1529.78 1750.41 1522.67 Q1750.41 1515.55 1748.58 1512 Q1746.78 1508.44 1743.14 1508.44 M1743.14 1504.73 Q1748.95 1504.73 1752.01 1509.34 Q1755.09 1513.92 1755.09 1522.67 Q1755.09 1531.4 1752.01 1536.01 Q1748.95 1540.59 1743.14 1540.59 Q1737.33 1540.59 1734.26 1536.01 Q1731.2 1531.4 1731.2 1522.67 Q1731.2 1513.92 1734.26 1509.34 Q1737.33 1504.73 1743.14 1504.73 Z" fill="#000000" fill-rule="evenodd" fill-opacity="1" /><path clip-path="url(#clip1100)" d="M 0 0 M1760.16 1534.04 L1765.04 1534.04 L1765.04 1539.92 L1760.16 1539.92 L1760.16 1534.04 Z" fill="#000000" fill-rule="evenodd" fill-opacity="1" /><path clip-path="url(#clip1100)" d="M 0 0 M1768.93 1505.36 L1791.15 1505.36 L1791.15 1507.35 L1778.61 1539.92 L1773.72 1539.92 L1785.53 1509.3 L1768.93 1509.3 L1768.93 1505.36 Z" fill="#000000" fill-rule="evenodd" fill-opacity="1" /><path clip-path="url(#clip1100)" d="M 0 0 M1796.27 1505.36 L1814.63 1505.36 L1814.63 1509.3 L1800.55 1509.3 L1800.55 1517.77 Q1801.57 1517.42 1802.59 1517.26 Q1803.61 1517.07 1804.63 1517.07 Q1810.41 1517.07 1813.79 1520.24 Q1817.17 1523.42 1817.17 1528.83 Q1817.17 1534.41 1813.7 1537.51 Q1810.23 1540.59 1803.91 1540.59 Q1801.73 1540.59 1799.46 1540.22 Q1797.22 1539.85 1794.81 1539.11 L1794.81 1534.41 Q1796.89 1535.54 1799.12 1536.1 Q1801.34 1536.66 1803.82 1536.66 Q1807.82 1536.66 1810.16 1534.55 Q1812.5 1532.44 1812.5 1528.83 Q1812.5 1525.22 1810.16 1523.11 Q1807.82 1521.01 1803.82 1521.01 Q1801.94 1521.01 1800.07 1521.42 Q1798.21 1521.84 1796.27 1522.72 L1796.27 1505.36 Z" fill="#000000" fill-rule="evenodd" fill-opacity="1" /><path clip-path="url(#clip1100)" d="M 0 0 M2249.16 1535.98 L2256.8 1535.98 L2256.8 1509.62 L2248.49 1511.29 L2248.49 1507.03 L2256.75 1505.36 L2261.43 1505.36 L2261.43 1535.98 L2269.06 1535.98 L2269.06 1539.92 L2249.16 1539.92 L2249.16 1535.98 Z" fill="#000000" fill-rule="evenodd" fill-opacity="1" /><path clip-path="url(#clip1100)" d="M 0 0 M2274.13 1534.04 L2279.02 1534.04 L2279.02 1539.92 L2274.13 1539.92 L2274.13 1534.04 Z" fill="#000000" fill-rule="evenodd" fill-opacity="1" /><path clip-path="url(#clip1100)" d="M 0 0 M2294.09 1508.44 Q2290.48 1508.44 2288.65 1512 Q2286.84 1515.55 2286.84 1522.67 Q2286.84 1529.78 2288.65 1533.35 Q2290.48 1536.89 2294.09 1536.89 Q2297.72 1536.89 2299.53 1533.35 Q2301.36 1529.78 2301.36 1522.67 Q2301.36 1515.55 2299.53 1512 Q2297.72 1508.44 2294.09 1508.44 M2294.09 1504.73 Q2299.9 1504.73 2302.95 1509.34 Q2306.03 1513.92 2306.03 1522.67 Q2306.03 1531.4 2302.95 1536.01 Q2299.9 1540.59 2294.09 1540.59 Q2288.28 1540.59 2285.2 1536.01 Q2282.14 1531.4 2282.14 1522.67 Q2282.14 1513.92 2285.2 1509.34 Q2288.28 1504.73 2294.09 1504.73 Z" fill="#000000" fill-rule="evenodd" fill-opacity="1" /><path clip-path="url(#clip1100)" d="M 0 0 M2321.1 1508.44 Q2317.49 1508.44 2315.66 1512 Q2313.86 1515.55 2313.86 1522.67 Q2313.86 1529.78 2315.66 1533.35 Q2317.49 1536.89 2321.1 1536.89 Q2324.74 1536.89 2326.54 1533.35 Q2328.37 1529.78 2328.37 1522.67 Q2328.37 1515.55 2326.54 1512 Q2324.74 1508.44 2321.1 1508.44 M2321.1 1504.73 Q2326.91 1504.73 2329.97 1509.34 Q2333.05 1513.92 2333.05 1522.67 Q2333.05 1531.4 2329.97 1536.01 Q2326.91 1540.59 2321.1 1540.59 Q2315.29 1540.59 2312.21 1536.01 Q2309.16 1531.4 2309.16 1522.67 Q2309.16 1513.92 2312.21 1509.34 Q2315.29 1504.73 2321.1 1504.73 Z" fill="#000000" fill-rule="evenodd" fill-opacity="1" /><path clip-path="url(#clip1100)" d="M 0 0 M62.9921 1488.84 L75.4689 1488.84 L75.4689 1492.64 L62.9921 1492.64 L62.9921 1488.84 Z" fill="#000000" fill-rule="evenodd" fill-opacity="1" /><path clip-path="url(#clip1100)" d="M 0 0 M90.5383 1472.25 Q86.9272 1472.25 85.0985 1475.81 Q83.2929 1479.35 83.2929 1486.48 Q83.2929 1493.59 85.0985 1497.15 Q86.9272 1500.7 90.5383 1500.7 Q94.1725 1500.7 95.9781 1497.15 Q97.8068 1493.59 97.8068 1486.48 Q97.8068 1479.35 95.9781 1475.81 Q94.1725 1472.25 90.5383 1472.25 M90.5383 1468.54 Q96.3484 1468.54 99.404 1473.15 Q102.483 1477.73 102.483 1486.48 Q102.483 1495.21 99.404 1499.82 Q96.3484 1504.4 90.5383 1504.4 Q84.7281 1504.4 81.6494 1499.82 Q78.5939 1495.21 78.5939 1486.48 Q78.5939 1477.73 81.6494 1473.15 Q84.7281 1468.54 90.5383 1468.54 Z" fill="#000000" fill-rule="evenodd" fill-opacity="1" /><path clip-path="url(#clip1100)" d="M 0 0 M107.552 1497.85 L112.436 1497.85 L112.436 1503.73 L107.552 1503.73 L107.552 1497.85 Z" fill="#000000" fill-rule="evenodd" fill-opacity="1" /><path clip-path="url(#clip1100)" d="M 0 0 M117.552 1469.17 L135.908 1469.17 L135.908 1473.1 L121.834 1473.1 L121.834 1481.58 Q122.853 1481.23 123.871 1481.07 Q124.89 1480.88 125.908 1480.88 Q131.695 1480.88 135.075 1484.05 Q138.455 1487.22 138.455 1492.64 Q138.455 1498.22 134.982 1501.32 Q131.51 1504.4 125.191 1504.4 Q123.015 1504.4 120.746 1504.03 Q118.501 1503.66 116.094 1502.92 L116.094 1498.22 Q118.177 1499.35 120.399 1499.91 Q122.621 1500.46 125.098 1500.46 Q129.103 1500.46 131.441 1498.36 Q133.779 1496.25 133.779 1492.64 Q133.779 1489.03 131.441 1486.92 Q129.103 1484.82 125.098 1484.82 Q123.223 1484.82 121.348 1485.23 Q119.496 1485.65 117.552 1486.53 L117.552 1469.17 Z" fill="#000000" fill-rule="evenodd" fill-opacity="1" /><path clip-path="url(#clip1100)" d="M 0 0 M89.5429 992.512 Q85.9318 992.512 84.1031 996.077 Q82.2976 999.618 82.2976 1006.75 Q82.2976 1013.85 84.1031 1017.42 Q85.9318 1020.96 89.5429 1020.96 Q93.1771 1020.96 94.9827 1017.42 Q96.8114 1013.85 96.8114 1006.75 Q96.8114 999.618 94.9827 996.077 Q93.1771 992.512 89.5429 992.512 M89.5429 988.808 Q95.3531 988.808 98.4086 993.415 Q101.487 997.998 101.487 1006.75 Q101.487 1015.47 98.4086 1020.08 Q95.3531 1024.66 89.5429 1024.66 Q83.7328 1024.66 80.6541 1020.08 Q77.5985 1015.47 77.5985 1006.75 Q77.5985 997.998 80.6541 993.415 Q83.7328 988.808 89.5429 988.808 Z" fill="#000000" fill-rule="evenodd" fill-opacity="1" /><path clip-path="url(#clip1100)" d="M 0 0 M106.557 1018.11 L111.441 1018.11 L111.441 1023.99 L106.557 1023.99 L106.557 1018.11 Z" fill="#000000" fill-rule="evenodd" fill-opacity="1" /><path clip-path="url(#clip1100)" d="M 0 0 M126.51 992.512 Q122.899 992.512 121.071 996.077 Q119.265 999.618 119.265 1006.75 Q119.265 1013.85 121.071 1017.42 Q122.899 1020.96 126.51 1020.96 Q130.145 1020.96 131.95 1017.42 Q133.779 1013.85 133.779 1006.75 Q133.779 999.618 131.95 996.077 Q130.145 992.512 126.51 992.512 M126.51 988.808 Q132.32 988.808 135.376 993.415 Q138.455 997.998 138.455 1006.75 Q138.455 1015.47 135.376 1020.08 Q132.32 1024.66 126.51 1024.66 Q120.7 1024.66 117.621 1020.08 Q114.566 1015.47 114.566 1006.75 Q114.566 997.998 117.621 993.415 Q120.7 988.808 126.51 988.808 Z" fill="#000000" fill-rule="evenodd" fill-opacity="1" /><path clip-path="url(#clip1100)" d="M 0 0 M90.5383 512.777 Q86.9272 512.777 85.0985 516.342 Q83.2929 519.884 83.2929 527.013 Q83.2929 534.12 85.0985 537.685 Q86.9272 541.226 90.5383 541.226 Q94.1725 541.226 95.9781 537.685 Q97.8068 534.12 97.8068 527.013 Q97.8068 519.884 95.9781 516.342 Q94.1725 512.777 90.5383 512.777 M90.5383 509.074 Q96.3484 509.074 99.404 513.68 Q102.483 518.263 102.483 527.013 Q102.483 535.74 99.404 540.347 Q96.3484 544.93 90.5383 544.93 Q84.7281 544.93 81.6494 540.347 Q78.5939 535.74 78.5939 527.013 Q78.5939 518.263 81.6494 513.68 Q84.7281 509.074 90.5383 509.074 Z" fill="#000000" fill-rule="evenodd" fill-opacity="1" /><path clip-path="url(#clip1100)" d="M 0 0 M107.552 538.379 L112.436 538.379 L112.436 544.259 L107.552 544.259 L107.552 538.379 Z" fill="#000000" fill-rule="evenodd" fill-opacity="1" /><path clip-path="url(#clip1100)" d="M 0 0 M117.552 509.699 L135.908 509.699 L135.908 513.634 L121.834 513.634 L121.834 522.106 Q122.853 521.759 123.871 521.597 Q124.89 521.412 125.908 521.412 Q131.695 521.412 135.075 524.583 Q138.455 527.754 138.455 533.171 Q138.455 538.749 134.982 541.851 Q131.51 544.93 125.191 544.93 Q123.015 544.93 120.746 544.56 Q118.501 544.189 116.094 543.449 L116.094 538.749 Q118.177 539.884 120.399 540.439 Q122.621 540.995 125.098 540.995 Q129.103 540.995 131.441 538.888 Q133.779 536.782 133.779 533.171 Q133.779 529.56 131.441 527.453 Q129.103 525.347 125.098 525.347 Q123.223 525.347 121.348 525.763 Q119.496 526.18 117.552 527.06 L117.552 509.699 Z" fill="#000000" fill-rule="evenodd" fill-opacity="1" /><path clip-path="url(#clip1100)" d="M 0 0 M81.58 60.5889 L89.2188 60.5889 L89.2188 34.2233 L80.9087 35.89 L80.9087 31.6308 L89.1725 29.9641 L93.8484 29.9641 L93.8484 60.5889 L101.487 60.5889 L101.487 64.5241 L81.58 64.5241 L81.58 60.5889 Z" fill="#000000" fill-rule="evenodd" fill-opacity="1" /><path clip-path="url(#clip1100)" d="M 0 0 M106.557 58.6445 L111.441 58.6445 L111.441 64.5241 L106.557 64.5241 L106.557 58.6445 Z" fill="#000000" fill-rule="evenodd" fill-opacity="1" /><path clip-path="url(#clip1100)" d="M 0 0 M126.51 33.0428 Q122.899 33.0428 121.071 36.6076 Q119.265 40.1492 119.265 47.2788 Q119.265 54.3853 121.071 57.9501 Q122.899 61.4917 126.51 61.4917 Q130.145 61.4917 131.95 57.9501 Q133.779 54.3853 133.779 47.2788 Q133.779 40.1492 131.95 36.6076 Q130.145 33.0428 126.51 33.0428 M126.51 29.3391 Q132.32 29.3391 135.376 33.9456 Q138.455 38.5289 138.455 47.2788 Q138.455 56.0056 135.376 60.6121 Q132.32 65.1954 126.51 65.1954 Q120.7 65.1954 117.621 60.6121 Q114.566 56.0056 114.566 47.2788 Q114.566 38.5289 117.621 33.9456 Q120.7 29.3391 126.51 29.3391 Z" fill="#000000" fill-rule="evenodd" fill-opacity="1" /><polyline clip-path="url(#clip1102)" style="stroke:#009af9; stroke-width:4; stroke-opacity:1; fill:none" points="
  224.444,1006.71 431.077,997.119 637.709,968.335 844.341,920.361 1050.97,853.198 1257.61,766.846 1464.24,661.304 1670.87,536.573 1877.5,392.653 2084.13,229.543 
  2290.77,47.2441 
  "/>
<line clip-path="url(#clip1102)" x1="224.444" y1="1006.71" x2="208.444" y2="990.713" style="stroke:#009af9; stroke-width:3.2; stroke-opacity:1"/>
<line clip-path="url(#clip1102)" x1="224.444" y1="1006.71" x2="208.444" y2="1022.71" style="stroke:#009af9; stroke-width:3.2; stroke-opacity:1"/>
<line clip-path="url(#clip1102)" x1="224.444" y1="1006.71" x2="240.444" y2="1022.71" style="stroke:#009af9; stroke-width:3.2; stroke-opacity:1"/>
<line clip-path="url(#clip1102)" x1="224.444" y1="1006.71" x2="240.444" y2="990.713" style="stroke:#009af9; stroke-width:3.2; stroke-opacity:1"/>
<line clip-path="url(#clip1102)" x1="431.077" y1="997.119" x2="415.077" y2="981.119" style="stroke:#009af9; stroke-width:3.2; stroke-opacity:1"/>
<line clip-path="url(#clip1102)" x1="431.077" y1="997.119" x2="415.077" y2="1013.12" style="stroke:#009af9; stroke-width:3.2; stroke-opacity:1"/>
<line clip-path="url(#clip1102)" x1="431.077" y1="997.119" x2="447.077" y2="1013.12" style="stroke:#009af9; stroke-width:3.2; stroke-opacity:1"/>
<line clip-path="url(#clip1102)" x1="431.077" y1="997.119" x2="447.077" y2="981.119" style="stroke:#009af9; stroke-width:3.2; stroke-opacity:1"/>
<line clip-path="url(#clip1102)" x1="637.709" y1="968.335" x2="621.709" y2="952.335" style="stroke:#009af9; stroke-width:3.2; stroke-opacity:1"/>
<line clip-path="url(#clip1102)" x1="637.709" y1="968.335" x2="621.709" y2="984.335" style="stroke:#009af9; stroke-width:3.2; stroke-opacity:1"/>
<line clip-path="url(#clip1102)" x1="637.709" y1="968.335" x2="653.709" y2="984.335" style="stroke:#009af9; stroke-width:3.2; stroke-opacity:1"/>
<line clip-path="url(#clip1102)" x1="637.709" y1="968.335" x2="653.709" y2="952.335" style="stroke:#009af9; stroke-width:3.2; stroke-opacity:1"/>
<line clip-path="url(#clip1102)" x1="844.341" y1="920.361" x2="828.341" y2="904.361" style="stroke:#009af9; stroke-width:3.2; stroke-opacity:1"/>
<line clip-path="url(#clip1102)" x1="844.341" y1="920.361" x2="828.341" y2="936.361" style="stroke:#009af9; stroke-width:3.2; stroke-opacity:1"/>
<line clip-path="url(#clip1102)" x1="844.341" y1="920.361" x2="860.341" y2="936.361" style="stroke:#009af9; stroke-width:3.2; stroke-opacity:1"/>
<line clip-path="url(#clip1102)" x1="844.341" y1="920.361" x2="860.341" y2="904.361" style="stroke:#009af9; stroke-width:3.2; stroke-opacity:1"/>
<line clip-path="url(#clip1102)" x1="1050.97" y1="853.198" x2="1034.97" y2="837.198" style="stroke:#009af9; stroke-width:3.2; stroke-opacity:1"/>
<line clip-path="url(#clip1102)" x1="1050.97" y1="853.198" x2="1034.97" y2="869.198" style="stroke:#009af9; stroke-width:3.2; stroke-opacity:1"/>
<line clip-path="url(#clip1102)" x1="1050.97" y1="853.198" x2="1066.97" y2="869.198" style="stroke:#009af9; stroke-width:3.2; stroke-opacity:1"/>
<line clip-path="url(#clip1102)" x1="1050.97" y1="853.198" x2="1066.97" y2="837.198" style="stroke:#009af9; stroke-width:3.2; stroke-opacity:1"/>
<line clip-path="url(#clip1102)" x1="1257.61" y1="766.846" x2="1241.61" y2="750.846" style="stroke:#009af9; stroke-width:3.2; stroke-opacity:1"/>
<line clip-path="url(#clip1102)" x1="1257.61" y1="766.846" x2="1241.61" y2="782.846" style="stroke:#009af9; stroke-width:3.2; stroke-opacity:1"/>
<line clip-path="url(#clip1102)" x1="1257.61" y1="766.846" x2="1273.61" y2="782.846" style="stroke:#009af9; stroke-width:3.2; stroke-opacity:1"/>
<line clip-path="url(#clip1102)" x1="1257.61" y1="766.846" x2="1273.61" y2="750.846" style="stroke:#009af9; stroke-width:3.2; stroke-opacity:1"/>
<line clip-path="url(#clip1102)" x1="1464.24" y1="661.304" x2="1448.24" y2="645.304" style="stroke:#009af9; stroke-width:3.2; stroke-opacity:1"/>
<line clip-path="url(#clip1102)" x1="1464.24" y1="661.304" x2="1448.24" y2="677.304" style="stroke:#009af9; stroke-width:3.2; stroke-opacity:1"/>
<line clip-path="url(#clip1102)" x1="1464.24" y1="661.304" x2="1480.24" y2="677.304" style="stroke:#009af9; stroke-width:3.2; stroke-opacity:1"/>
<line clip-path="url(#clip1102)" x1="1464.24" y1="661.304" x2="1480.24" y2="645.304" style="stroke:#009af9; stroke-width:3.2; stroke-opacity:1"/>
<line clip-path="url(#clip1102)" x1="1670.87" y1="536.573" x2="1654.87" y2="520.573" style="stroke:#009af9; stroke-width:3.2; stroke-opacity:1"/>
<line clip-path="url(#clip1102)" x1="1670.87" y1="536.573" x2="1654.87" y2="552.573" style="stroke:#009af9; stroke-width:3.2; stroke-opacity:1"/>
<line clip-path="url(#clip1102)" x1="1670.87" y1="536.573" x2="1686.87" y2="552.573" style="stroke:#009af9; stroke-width:3.2; stroke-opacity:1"/>
<line clip-path="url(#clip1102)" x1="1670.87" y1="536.573" x2="1686.87" y2="520.573" style="stroke:#009af9; stroke-width:3.2; stroke-opacity:1"/>
<line clip-path="url(#clip1102)" x1="1877.5" y1="392.653" x2="1861.5" y2="376.653" style="stroke:#009af9; stroke-width:3.2; stroke-opacity:1"/>
<line clip-path="url(#clip1102)" x1="1877.5" y1="392.653" x2="1861.5" y2="408.653" style="stroke:#009af9; stroke-width:3.2; stroke-opacity:1"/>
<line clip-path="url(#clip1102)" x1="1877.5" y1="392.653" x2="1893.5" y2="408.653" style="stroke:#009af9; stroke-width:3.2; stroke-opacity:1"/>
<line clip-path="url(#clip1102)" x1="1877.5" y1="392.653" x2="1893.5" y2="376.653" style="stroke:#009af9; stroke-width:3.2; stroke-opacity:1"/>
<line clip-path="url(#clip1102)" x1="2084.13" y1="229.543" x2="2068.13" y2="213.543" style="stroke:#009af9; stroke-width:3.2; stroke-opacity:1"/>
<line clip-path="url(#clip1102)" x1="2084.13" y1="229.543" x2="2068.13" y2="245.543" style="stroke:#009af9; stroke-width:3.2; stroke-opacity:1"/>
<line clip-path="url(#clip1102)" x1="2084.13" y1="229.543" x2="2100.13" y2="245.543" style="stroke:#009af9; stroke-width:3.2; stroke-opacity:1"/>
<line clip-path="url(#clip1102)" x1="2084.13" y1="229.543" x2="2100.13" y2="213.543" style="stroke:#009af9; stroke-width:3.2; stroke-opacity:1"/>
<line clip-path="url(#clip1102)" x1="2290.77" y1="47.2441" x2="2274.77" y2="31.2441" style="stroke:#009af9; stroke-width:3.2; stroke-opacity:1"/>
<line clip-path="url(#clip1102)" x1="2290.77" y1="47.2441" x2="2274.77" y2="63.2441" style="stroke:#009af9; stroke-width:3.2; stroke-opacity:1"/>
<line clip-path="url(#clip1102)" x1="2290.77" y1="47.2441" x2="2306.77" y2="63.2441" style="stroke:#009af9; stroke-width:3.2; stroke-opacity:1"/>
<line clip-path="url(#clip1102)" x1="2290.77" y1="47.2441" x2="2306.77" y2="31.2441" style="stroke:#009af9; stroke-width:3.2; stroke-opacity:1"/>
<polyline clip-path="url(#clip1102)" style="stroke:#e26f46; stroke-width:4; stroke-opacity:1; fill:none" points="
  224.444,1006.71 2290.77,905.231 
  "/>
<polyline clip-path="url(#clip1102)" style="stroke:#3da44d; stroke-width:4; stroke-opacity:1; fill:none" points="
  224.444,1075.35 2290.77,542.109 
  "/>
<polyline clip-path="url(#clip1102)" style="stroke:#c271d2; stroke-width:4; stroke-opacity:1; fill:none" points="
  224.444,1458.77 2290.77,102.598 
  "/>
<path clip-path="url(#clip1100)" d="
M234.455 433.164 L785.333 433.164 L785.333 130.764 L234.455 130.764  Z
  " fill="#ffffff" fill-rule="evenodd" fill-opacity="1"/>
<polyline clip-path="url(#clip1100)" style="stroke:#000000; stroke-width:4; stroke-opacity:1; fill:none" points="
  234.455,433.164 785.333,433.164 785.333,130.764 234.455,130.764 234.455,433.164 
  "/>
<polyline clip-path="url(#clip1100)" style="stroke:#009af9; stroke-width:4; stroke-opacity:1; fill:none" points="
  258.455,191.244 402.455,191.244 
  "/>
<line clip-path="url(#clip1100)" x1="342.455" y1="191.244" x2="318.455" y2="167.244" style="stroke:#009af9; stroke-width:3.2; stroke-opacity:1"/>
<line clip-path="url(#clip1100)" x1="342.455" y1="191.244" x2="318.455" y2="215.244" style="stroke:#009af9; stroke-width:3.2; stroke-opacity:1"/>
<line clip-path="url(#clip1100)" x1="342.455" y1="191.244" x2="366.455" y2="215.244" style="stroke:#009af9; stroke-width:3.2; stroke-opacity:1"/>
<line clip-path="url(#clip1100)" x1="342.455" y1="191.244" x2="366.455" y2="167.244" style="stroke:#009af9; stroke-width:3.2; stroke-opacity:1"/>
<path clip-path="url(#clip1100)" d="M 0 0 M426.455 173.964 L433.422 173.964 L442.242 197.482 L451.107 173.964 L458.075 173.964 L458.075 208.524 L453.515 208.524 L453.515 178.177 L444.603 201.881 L439.904 201.881 L430.992 178.177 L430.992 208.524 L426.455 208.524 L426.455 173.964 Z" fill="#000000" fill-rule="evenodd" fill-opacity="1" /><path clip-path="url(#clip1100)" d="M 0 0 M484.718 194.496 L484.718 196.58 L465.135 196.58 Q465.413 200.978 467.774 203.293 Q470.158 205.584 474.394 205.584 Q476.848 205.584 479.14 204.982 Q481.454 204.381 483.723 203.177 L483.723 207.205 Q481.431 208.177 479.024 208.686 Q476.616 209.195 474.14 209.195 Q467.936 209.195 464.302 205.584 Q460.691 201.973 460.691 195.816 Q460.691 189.45 464.117 185.723 Q467.566 181.973 473.399 181.973 Q478.63 181.973 481.663 185.353 Q484.718 188.709 484.718 194.496 M480.459 193.246 Q480.413 189.751 478.491 187.668 Q476.593 185.584 473.445 185.584 Q469.88 185.584 467.728 187.598 Q465.598 189.612 465.274 193.27 L480.459 193.246 Z" fill="#000000" fill-rule="evenodd" fill-opacity="1" /><path clip-path="url(#clip1100)" d="M 0 0 M500.968 195.492 Q495.806 195.492 493.815 196.672 Q491.825 197.853 491.825 200.7 Q491.825 202.969 493.306 204.311 Q494.811 205.631 497.38 205.631 Q500.922 205.631 503.051 203.131 Q505.204 200.607 505.204 196.441 L505.204 195.492 L500.968 195.492 M509.463 193.733 L509.463 208.524 L505.204 208.524 L505.204 204.589 Q503.746 206.95 501.57 208.084 Q499.394 209.195 496.246 209.195 Q492.265 209.195 489.903 206.973 Q487.565 204.728 487.565 200.978 Q487.565 196.603 490.482 194.381 Q493.422 192.158 499.232 192.158 L505.204 192.158 L505.204 191.742 Q505.204 188.802 503.26 187.205 Q501.339 185.584 497.843 185.584 Q495.621 185.584 493.515 186.117 Q491.408 186.649 489.464 187.714 L489.464 183.779 Q491.802 182.876 494.001 182.436 Q496.2 181.973 498.283 181.973 Q503.908 181.973 506.686 184.89 Q509.463 187.807 509.463 193.733 Z" fill="#000000" fill-rule="evenodd" fill-opacity="1" /><path clip-path="url(#clip1100)" d="M 0 0 M530.459 183.362 L530.459 187.39 Q528.653 186.464 526.709 186.001 Q524.764 185.538 522.681 185.538 Q519.51 185.538 517.913 186.51 Q516.338 187.483 516.338 189.427 Q516.338 190.908 517.473 191.765 Q518.607 192.598 522.033 193.362 L523.491 193.686 Q528.028 194.658 529.926 196.441 Q531.848 198.2 531.848 201.371 Q531.848 204.982 528.977 207.089 Q526.13 209.195 521.13 209.195 Q519.047 209.195 516.778 208.779 Q514.533 208.385 512.033 207.575 L512.033 203.177 Q514.394 204.404 516.686 205.029 Q518.977 205.631 521.223 205.631 Q524.232 205.631 525.852 204.612 Q527.473 203.57 527.473 201.695 Q527.473 199.959 526.292 199.033 Q525.135 198.107 521.176 197.251 L519.695 196.904 Q515.737 196.07 513.977 194.358 Q512.218 192.621 512.218 189.612 Q512.218 185.955 514.811 183.964 Q517.403 181.973 522.172 181.973 Q524.533 181.973 526.616 182.321 Q528.7 182.668 530.459 183.362 Z" fill="#000000" fill-rule="evenodd" fill-opacity="1" /><path clip-path="url(#clip1100)" d="M 0 0 M535.875 198.293 L535.875 182.598 L540.135 182.598 L540.135 198.131 Q540.135 201.811 541.57 203.663 Q543.005 205.492 545.875 205.492 Q549.324 205.492 551.315 203.293 Q553.329 201.094 553.329 197.297 L553.329 182.598 L557.588 182.598 L557.588 208.524 L553.329 208.524 L553.329 204.543 Q551.778 206.904 549.718 208.061 Q547.681 209.195 544.973 209.195 Q540.505 209.195 538.19 206.418 Q535.875 203.64 535.875 198.293 M546.593 181.973 L546.593 181.973 Z" fill="#000000" fill-rule="evenodd" fill-opacity="1" /><path clip-path="url(#clip1100)" d="M 0 0 M577.079 186.58 Q576.361 186.163 575.505 185.978 Q574.671 185.77 573.653 185.77 Q570.042 185.77 568.097 188.131 Q566.176 190.469 566.176 194.867 L566.176 208.524 L561.894 208.524 L561.894 182.598 L566.176 182.598 L566.176 186.626 Q567.519 184.265 569.672 183.131 Q571.824 181.973 574.903 181.973 Q575.343 181.973 575.875 182.043 Q576.408 182.089 577.056 182.205 L577.079 186.58 Z" fill="#000000" fill-rule="evenodd" fill-opacity="1" /><path clip-path="url(#clip1100)" d="M 0 0 M602.681 194.496 L602.681 196.58 L583.097 196.58 Q583.375 200.978 585.736 203.293 Q588.12 205.584 592.357 205.584 Q594.81 205.584 597.102 204.982 Q599.417 204.381 601.685 203.177 L601.685 207.205 Q599.394 208.177 596.986 208.686 Q594.579 209.195 592.102 209.195 Q585.898 209.195 582.264 205.584 Q578.653 201.973 578.653 195.816 Q578.653 189.45 582.079 185.723 Q585.528 181.973 591.361 181.973 Q596.593 181.973 599.625 185.353 Q602.681 188.709 602.681 194.496 M598.421 193.246 Q598.375 189.751 596.454 187.668 Q594.556 185.584 591.408 185.584 Q587.843 185.584 585.69 187.598 Q583.56 189.612 583.236 193.27 L598.421 193.246 Z" fill="#000000" fill-rule="evenodd" fill-opacity="1" /><path clip-path="url(#clip1100)" d="M 0 0 M627.333 187.575 Q628.93 184.705 631.153 183.339 Q633.375 181.973 636.384 181.973 Q640.435 181.973 642.634 184.821 Q644.833 187.645 644.833 192.876 L644.833 208.524 L640.551 208.524 L640.551 193.015 Q640.551 189.288 639.231 187.483 Q637.912 185.677 635.204 185.677 Q631.893 185.677 629.972 187.876 Q628.051 190.075 628.051 193.871 L628.051 208.524 L623.768 208.524 L623.768 193.015 Q623.768 189.265 622.449 187.483 Q621.13 185.677 618.375 185.677 Q615.111 185.677 613.19 187.899 Q611.269 190.098 611.269 193.871 L611.269 208.524 L606.986 208.524 L606.986 182.598 L611.269 182.598 L611.269 186.626 Q612.727 184.242 614.764 183.108 Q616.801 181.973 619.602 181.973 Q622.426 181.973 624.393 183.408 Q626.384 184.844 627.333 187.575 Z" fill="#000000" fill-rule="evenodd" fill-opacity="1" /><path clip-path="url(#clip1100)" d="M 0 0 M671.477 194.496 L671.477 196.58 L651.893 196.58 Q652.171 200.978 654.532 203.293 Q656.916 205.584 661.153 205.584 Q663.606 205.584 665.898 204.982 Q668.213 204.381 670.481 203.177 L670.481 207.205 Q668.19 208.177 665.782 208.686 Q663.375 209.195 660.898 209.195 Q654.694 209.195 651.06 205.584 Q647.449 201.973 647.449 195.816 Q647.449 189.45 650.875 185.723 Q654.324 181.973 660.157 181.973 Q665.389 181.973 668.421 185.353 Q671.477 188.709 671.477 194.496 M667.217 193.246 Q667.171 189.751 665.25 187.668 Q663.352 185.584 660.203 185.584 Q656.639 185.584 654.486 187.598 Q652.356 189.612 652.032 193.27 L667.217 193.246 Z" fill="#000000" fill-rule="evenodd" fill-opacity="1" /><path clip-path="url(#clip1100)" d="M 0 0 M697.495 192.876 L697.495 208.524 L693.236 208.524 L693.236 193.015 Q693.236 189.334 691.8 187.506 Q690.365 185.677 687.495 185.677 Q684.046 185.677 682.055 187.876 Q680.064 190.075 680.064 193.871 L680.064 208.524 L675.782 208.524 L675.782 182.598 L680.064 182.598 L680.064 186.626 Q681.592 184.288 683.652 183.131 Q685.736 181.973 688.444 181.973 Q692.912 181.973 695.203 184.751 Q697.495 187.506 697.495 192.876 Z" fill="#000000" fill-rule="evenodd" fill-opacity="1" /><path clip-path="url(#clip1100)" d="M 0 0 M706.175 175.237 L706.175 182.598 L714.949 182.598 L714.949 185.908 L706.175 185.908 L706.175 199.982 Q706.175 203.154 707.032 204.057 Q707.912 204.959 710.574 204.959 L714.949 204.959 L714.949 208.524 L710.574 208.524 Q705.643 208.524 703.768 206.695 Q701.893 204.844 701.893 199.982 L701.893 185.908 L698.768 185.908 L698.768 182.598 L701.893 182.598 L701.893 175.237 L706.175 175.237 Z" fill="#000000" fill-rule="evenodd" fill-opacity="1" /><path clip-path="url(#clip1100)" d="M 0 0 M735.944 183.362 L735.944 187.39 Q734.138 186.464 732.194 186.001 Q730.249 185.538 728.166 185.538 Q724.995 185.538 723.398 186.51 Q721.823 187.483 721.823 189.427 Q721.823 190.908 722.958 191.765 Q724.092 192.598 727.518 193.362 L728.976 193.686 Q733.513 194.658 735.411 196.441 Q737.333 198.2 737.333 201.371 Q737.333 204.982 734.462 207.089 Q731.615 209.195 726.615 209.195 Q724.532 209.195 722.263 208.779 Q720.018 208.385 717.518 207.575 L717.518 203.177 Q719.879 204.404 722.171 205.029 Q724.462 205.631 726.708 205.631 Q729.717 205.631 731.337 204.612 Q732.958 203.57 732.958 201.695 Q732.958 199.959 731.777 199.033 Q730.62 198.107 726.661 197.251 L725.18 196.904 Q721.222 196.07 719.462 194.358 Q717.703 192.621 717.703 189.612 Q717.703 185.955 720.296 183.964 Q722.888 181.973 727.657 181.973 Q730.018 181.973 732.101 182.321 Q734.185 182.668 735.944 183.362 Z" fill="#000000" fill-rule="evenodd" fill-opacity="1" /><polyline clip-path="url(#clip1100)" style="stroke:#e26f46; stroke-width:4; stroke-opacity:1; fill:none" points="
  258.455,251.724 402.455,251.724 
  "/>
<path clip-path="url(#clip1100)" d="M 0 0 M454.325 237.106 L454.325 242.037 Q451.964 239.838 449.279 238.75 Q446.617 237.662 443.607 237.662 Q437.681 237.662 434.533 241.296 Q431.385 244.907 431.385 251.759 Q431.385 258.587 434.533 262.222 Q437.681 265.833 443.607 265.833 Q446.617 265.833 449.279 264.745 Q451.964 263.657 454.325 261.458 L454.325 266.342 Q451.871 268.009 449.117 268.842 Q446.385 269.675 443.33 269.675 Q435.482 269.675 430.969 264.884 Q426.455 260.069 426.455 251.759 Q426.455 243.426 430.969 238.634 Q435.482 233.819 443.33 233.819 Q446.431 233.819 449.163 234.652 Q451.918 235.463 454.325 237.106 Z" fill="#000000" fill-rule="evenodd" fill-opacity="1" /><path clip-path="url(#clip1100)" d="M 0 0 M468.839 246.064 Q465.413 246.064 463.422 248.75 Q461.431 251.412 461.431 256.064 Q461.431 260.717 463.399 263.402 Q465.39 266.064 468.839 266.064 Q472.241 266.064 474.232 263.379 Q476.223 260.694 476.223 256.064 Q476.223 251.458 474.232 248.773 Q472.241 246.064 468.839 246.064 M468.839 242.453 Q474.394 242.453 477.566 246.064 Q480.737 249.675 480.737 256.064 Q480.737 262.43 477.566 266.064 Q474.394 269.675 468.839 269.675 Q463.26 269.675 460.089 266.064 Q456.941 262.43 456.941 256.064 Q456.941 249.675 460.089 246.064 Q463.26 242.453 468.839 242.453 Z" fill="#000000" fill-rule="evenodd" fill-opacity="1" /><path clip-path="url(#clip1100)" d="M 0 0 M506.755 253.356 L506.755 269.004 L502.496 269.004 L502.496 253.495 Q502.496 249.814 501.061 247.986 Q499.626 246.157 496.755 246.157 Q493.306 246.157 491.315 248.356 Q489.325 250.555 489.325 254.351 L489.325 269.004 L485.042 269.004 L485.042 243.078 L489.325 243.078 L489.325 247.106 Q490.852 244.768 492.913 243.611 Q494.996 242.453 497.704 242.453 Q502.172 242.453 504.464 245.231 Q506.755 247.986 506.755 253.356 Z" fill="#000000" fill-rule="evenodd" fill-opacity="1" /><path clip-path="url(#clip1100)" d="M 0 0 M527.75 243.842 L527.75 247.87 Q525.945 246.944 524 246.481 Q522.056 246.018 519.973 246.018 Q516.801 246.018 515.204 246.99 Q513.63 247.963 513.63 249.907 Q513.63 251.388 514.764 252.245 Q515.899 253.078 519.325 253.842 L520.783 254.166 Q525.32 255.138 527.218 256.921 Q529.139 258.68 529.139 261.851 Q529.139 265.462 526.269 267.569 Q523.422 269.675 518.422 269.675 Q516.338 269.675 514.07 269.259 Q511.825 268.865 509.325 268.055 L509.325 263.657 Q511.686 264.884 513.977 265.509 Q516.269 266.111 518.514 266.111 Q521.524 266.111 523.144 265.092 Q524.764 264.05 524.764 262.175 Q524.764 260.439 523.584 259.513 Q522.426 258.587 518.468 257.731 L516.987 257.384 Q513.028 256.55 511.269 254.838 Q509.51 253.101 509.51 250.092 Q509.51 246.435 512.102 244.444 Q514.695 242.453 519.463 242.453 Q521.825 242.453 523.908 242.801 Q525.991 243.148 527.75 243.842 Z" fill="#000000" fill-rule="evenodd" fill-opacity="1" /><path clip-path="url(#clip1100)" d="M 0 0 M537.82 235.717 L537.82 243.078 L546.593 243.078 L546.593 246.388 L537.82 246.388 L537.82 260.462 Q537.82 263.634 538.676 264.537 Q539.556 265.439 542.218 265.439 L546.593 265.439 L546.593 269.004 L542.218 269.004 Q537.287 269.004 535.412 267.175 Q533.537 265.324 533.537 260.462 L533.537 246.388 L530.412 246.388 L530.412 243.078 L533.537 243.078 L533.537 235.717 L537.82 235.717 Z" fill="#000000" fill-rule="evenodd" fill-opacity="1" /><path clip-path="url(#clip1100)" d="M 0 0 M566.084 247.06 Q565.366 246.643 564.51 246.458 Q563.676 246.25 562.658 246.25 Q559.047 246.25 557.102 248.611 Q555.181 250.949 555.181 255.347 L555.181 269.004 L550.898 269.004 L550.898 243.078 L555.181 243.078 L555.181 247.106 Q556.523 244.745 558.676 243.611 Q560.829 242.453 563.908 242.453 Q564.347 242.453 564.88 242.523 Q565.412 242.569 566.06 242.685 L566.084 247.06 Z" fill="#000000" fill-rule="evenodd" fill-opacity="1" /><path clip-path="url(#clip1100)" d="M 0 0 M582.333 255.972 Q577.171 255.972 575.181 257.152 Q573.19 258.333 573.19 261.18 Q573.19 263.449 574.671 264.791 Q576.176 266.111 578.746 266.111 Q582.287 266.111 584.417 263.611 Q586.57 261.087 586.57 256.921 L586.57 255.972 L582.333 255.972 M590.829 254.213 L590.829 269.004 L586.57 269.004 L586.57 265.069 Q585.111 267.43 582.935 268.564 Q580.759 269.675 577.611 269.675 Q573.63 269.675 571.269 267.453 Q568.931 265.208 568.931 261.458 Q568.931 257.083 571.847 254.861 Q574.787 252.638 580.597 252.638 L586.57 252.638 L586.57 252.222 Q586.57 249.282 584.625 247.685 Q582.704 246.064 579.208 246.064 Q576.986 246.064 574.88 246.597 Q572.773 247.129 570.829 248.194 L570.829 244.259 Q573.167 243.356 575.366 242.916 Q577.565 242.453 579.648 242.453 Q585.273 242.453 588.051 245.37 Q590.829 248.287 590.829 254.213 Z" fill="#000000" fill-rule="evenodd" fill-opacity="1" /><path clip-path="url(#clip1100)" d="M 0 0 M595.296 243.078 L599.556 243.078 L599.556 269.004 L595.296 269.004 L595.296 243.078 M595.296 232.986 L599.556 232.986 L599.556 238.379 L595.296 238.379 L595.296 232.986 Z" fill="#000000" fill-rule="evenodd" fill-opacity="1" /><path clip-path="url(#clip1100)" d="M 0 0 M625.574 253.356 L625.574 269.004 L621.315 269.004 L621.315 253.495 Q621.315 249.814 619.88 247.986 Q618.444 246.157 615.574 246.157 Q612.125 246.157 610.134 248.356 Q608.144 250.555 608.144 254.351 L608.144 269.004 L603.861 269.004 L603.861 243.078 L608.144 243.078 L608.144 247.106 Q609.671 244.768 611.731 243.611 Q613.815 242.453 616.523 242.453 Q620.991 242.453 623.282 245.231 Q625.574 247.986 625.574 253.356 Z" fill="#000000" fill-rule="evenodd" fill-opacity="1" /><path clip-path="url(#clip1100)" d="M 0 0 M634.254 235.717 L634.254 243.078 L643.028 243.078 L643.028 246.388 L634.254 246.388 L634.254 260.462 Q634.254 263.634 635.111 264.537 Q635.991 265.439 638.653 265.439 L643.028 265.439 L643.028 269.004 L638.653 269.004 Q633.722 269.004 631.847 267.175 Q629.972 265.324 629.972 260.462 L629.972 246.388 L626.847 246.388 L626.847 243.078 L629.972 243.078 L629.972 235.717 L634.254 235.717 Z" fill="#000000" fill-rule="evenodd" fill-opacity="1" /><path clip-path="url(#clip1100)" d="M 0 0 M663.977 265.069 L671.615 265.069 L671.615 238.703 L663.305 240.37 L663.305 236.111 L671.569 234.444 L676.245 234.444 L676.245 265.069 L683.884 265.069 L683.884 269.004 L663.977 269.004 L663.977 265.069 Z" fill="#000000" fill-rule="evenodd" fill-opacity="1" /><polyline clip-path="url(#clip1100)" style="stroke:#3da44d; stroke-width:4; stroke-opacity:1; fill:none" points="
  258.455,312.204 402.455,312.204 
  "/>
<path clip-path="url(#clip1100)" d="M 0 0 M454.325 297.586 L454.325 302.517 Q451.964 300.318 449.279 299.23 Q446.617 298.142 443.607 298.142 Q437.681 298.142 434.533 301.776 Q431.385 305.387 431.385 312.239 Q431.385 319.067 434.533 322.702 Q437.681 326.313 443.607 326.313 Q446.617 326.313 449.279 325.225 Q451.964 324.137 454.325 321.938 L454.325 326.822 Q451.871 328.489 449.117 329.322 Q446.385 330.155 443.33 330.155 Q435.482 330.155 430.969 325.364 Q426.455 320.549 426.455 312.239 Q426.455 303.906 430.969 299.114 Q435.482 294.299 443.33 294.299 Q446.431 294.299 449.163 295.132 Q451.918 295.943 454.325 297.586 Z" fill="#000000" fill-rule="evenodd" fill-opacity="1" /><path clip-path="url(#clip1100)" d="M 0 0 M468.839 306.544 Q465.413 306.544 463.422 309.23 Q461.431 311.892 461.431 316.544 Q461.431 321.197 463.399 323.882 Q465.39 326.544 468.839 326.544 Q472.241 326.544 474.232 323.859 Q476.223 321.174 476.223 316.544 Q476.223 311.938 474.232 309.253 Q472.241 306.544 468.839 306.544 M468.839 302.933 Q474.394 302.933 477.566 306.544 Q480.737 310.155 480.737 316.544 Q480.737 322.91 477.566 326.544 Q474.394 330.155 468.839 330.155 Q463.26 330.155 460.089 326.544 Q456.941 322.91 456.941 316.544 Q456.941 310.155 460.089 306.544 Q463.26 302.933 468.839 302.933 Z" fill="#000000" fill-rule="evenodd" fill-opacity="1" /><path clip-path="url(#clip1100)" d="M 0 0 M506.755 313.836 L506.755 329.484 L502.496 329.484 L502.496 313.975 Q502.496 310.294 501.061 308.466 Q499.626 306.637 496.755 306.637 Q493.306 306.637 491.315 308.836 Q489.325 311.035 489.325 314.831 L489.325 329.484 L485.042 329.484 L485.042 303.558 L489.325 303.558 L489.325 307.586 Q490.852 305.248 492.913 304.091 Q494.996 302.933 497.704 302.933 Q502.172 302.933 504.464 305.711 Q506.755 308.466 506.755 313.836 Z" fill="#000000" fill-rule="evenodd" fill-opacity="1" /><path clip-path="url(#clip1100)" d="M 0 0 M527.75 304.322 L527.75 308.35 Q525.945 307.424 524 306.961 Q522.056 306.498 519.973 306.498 Q516.801 306.498 515.204 307.47 Q513.63 308.443 513.63 310.387 Q513.63 311.868 514.764 312.725 Q515.899 313.558 519.325 314.322 L520.783 314.646 Q525.32 315.618 527.218 317.401 Q529.139 319.16 529.139 322.331 Q529.139 325.942 526.269 328.049 Q523.422 330.155 518.422 330.155 Q516.338 330.155 514.07 329.739 Q511.825 329.345 509.325 328.535 L509.325 324.137 Q511.686 325.364 513.977 325.989 Q516.269 326.591 518.514 326.591 Q521.524 326.591 523.144 325.572 Q524.764 324.53 524.764 322.655 Q524.764 320.919 523.584 319.993 Q522.426 319.067 518.468 318.211 L516.987 317.864 Q513.028 317.03 511.269 315.318 Q509.51 313.581 509.51 310.572 Q509.51 306.915 512.102 304.924 Q514.695 302.933 519.463 302.933 Q521.825 302.933 523.908 303.281 Q525.991 303.628 527.75 304.322 Z" fill="#000000" fill-rule="evenodd" fill-opacity="1" /><path clip-path="url(#clip1100)" d="M 0 0 M537.82 296.197 L537.82 303.558 L546.593 303.558 L546.593 306.868 L537.82 306.868 L537.82 320.942 Q537.82 324.114 538.676 325.017 Q539.556 325.919 542.218 325.919 L546.593 325.919 L546.593 329.484 L542.218 329.484 Q537.287 329.484 535.412 327.655 Q533.537 325.804 533.537 320.942 L533.537 306.868 L530.412 306.868 L530.412 303.558 L533.537 303.558 L533.537 296.197 L537.82 296.197 Z" fill="#000000" fill-rule="evenodd" fill-opacity="1" /><path clip-path="url(#clip1100)" d="M 0 0 M566.084 307.54 Q565.366 307.123 564.51 306.938 Q563.676 306.73 562.658 306.73 Q559.047 306.73 557.102 309.091 Q555.181 311.429 555.181 315.827 L555.181 329.484 L550.898 329.484 L550.898 303.558 L555.181 303.558 L555.181 307.586 Q556.523 305.225 558.676 304.091 Q560.829 302.933 563.908 302.933 Q564.347 302.933 564.88 303.003 Q565.412 303.049 566.06 303.165 L566.084 307.54 Z" fill="#000000" fill-rule="evenodd" fill-opacity="1" /><path clip-path="url(#clip1100)" d="M 0 0 M582.333 316.452 Q577.171 316.452 575.181 317.632 Q573.19 318.813 573.19 321.66 Q573.19 323.929 574.671 325.271 Q576.176 326.591 578.746 326.591 Q582.287 326.591 584.417 324.091 Q586.57 321.567 586.57 317.401 L586.57 316.452 L582.333 316.452 M590.829 314.693 L590.829 329.484 L586.57 329.484 L586.57 325.549 Q585.111 327.91 582.935 329.044 Q580.759 330.155 577.611 330.155 Q573.63 330.155 571.269 327.933 Q568.931 325.688 568.931 321.938 Q568.931 317.563 571.847 315.341 Q574.787 313.118 580.597 313.118 L586.57 313.118 L586.57 312.702 Q586.57 309.762 584.625 308.165 Q582.704 306.544 579.208 306.544 Q576.986 306.544 574.88 307.077 Q572.773 307.609 570.829 308.674 L570.829 304.739 Q573.167 303.836 575.366 303.396 Q577.565 302.933 579.648 302.933 Q585.273 302.933 588.051 305.85 Q590.829 308.767 590.829 314.693 Z" fill="#000000" fill-rule="evenodd" fill-opacity="1" /><path clip-path="url(#clip1100)" d="M 0 0 M595.296 303.558 L599.556 303.558 L599.556 329.484 L595.296 329.484 L595.296 303.558 M595.296 293.466 L599.556 293.466 L599.556 298.859 L595.296 298.859 L595.296 293.466 Z" fill="#000000" fill-rule="evenodd" fill-opacity="1" /><path clip-path="url(#clip1100)" d="M 0 0 M625.574 313.836 L625.574 329.484 L621.315 329.484 L621.315 313.975 Q621.315 310.294 619.88 308.466 Q618.444 306.637 615.574 306.637 Q612.125 306.637 610.134 308.836 Q608.144 311.035 608.144 314.831 L608.144 329.484 L603.861 329.484 L603.861 303.558 L608.144 303.558 L608.144 307.586 Q609.671 305.248 611.731 304.091 Q613.815 302.933 616.523 302.933 Q620.991 302.933 623.282 305.711 Q625.574 308.466 625.574 313.836 Z" fill="#000000" fill-rule="evenodd" fill-opacity="1" /><path clip-path="url(#clip1100)" d="M 0 0 M634.254 296.197 L634.254 303.558 L643.028 303.558 L643.028 306.868 L634.254 306.868 L634.254 320.942 Q634.254 324.114 635.111 325.017 Q635.991 325.919 638.653 325.919 L643.028 325.919 L643.028 329.484 L638.653 329.484 Q633.722 329.484 631.847 327.655 Q629.972 325.804 629.972 320.942 L629.972 306.868 L626.847 306.868 L626.847 303.558 L629.972 303.558 L629.972 296.197 L634.254 296.197 Z" fill="#000000" fill-rule="evenodd" fill-opacity="1" /><path clip-path="url(#clip1100)" d="M 0 0 M667.194 325.549 L683.513 325.549 L683.513 329.484 L661.569 329.484 L661.569 325.549 Q664.231 322.794 668.814 318.165 Q673.421 313.512 674.602 312.169 Q676.847 309.646 677.726 307.91 Q678.629 306.151 678.629 304.461 Q678.629 301.706 676.685 299.97 Q674.764 298.234 671.662 298.234 Q669.463 298.234 667.009 298.998 Q664.578 299.762 661.801 301.313 L661.801 296.591 Q664.625 295.456 667.078 294.878 Q669.532 294.299 671.569 294.299 Q676.939 294.299 680.134 296.984 Q683.328 299.669 683.328 304.16 Q683.328 306.29 682.518 308.211 Q681.731 310.109 679.625 312.702 Q679.046 313.373 675.944 316.591 Q672.842 319.785 667.194 325.549 Z" fill="#000000" fill-rule="evenodd" fill-opacity="1" /><polyline clip-path="url(#clip1100)" style="stroke:#c271d2; stroke-width:4; stroke-opacity:1; fill:none" points="
  258.455,372.684 402.455,372.684 
  "/>
<path clip-path="url(#clip1100)" d="M 0 0 M454.325 358.066 L454.325 362.997 Q451.964 360.798 449.279 359.71 Q446.617 358.622 443.607 358.622 Q437.681 358.622 434.533 362.256 Q431.385 365.867 431.385 372.719 Q431.385 379.547 434.533 383.182 Q437.681 386.793 443.607 386.793 Q446.617 386.793 449.279 385.705 Q451.964 384.617 454.325 382.418 L454.325 387.302 Q451.871 388.969 449.117 389.802 Q446.385 390.635 443.33 390.635 Q435.482 390.635 430.969 385.844 Q426.455 381.029 426.455 372.719 Q426.455 364.386 430.969 359.594 Q435.482 354.779 443.33 354.779 Q446.431 354.779 449.163 355.612 Q451.918 356.423 454.325 358.066 Z" fill="#000000" fill-rule="evenodd" fill-opacity="1" /><path clip-path="url(#clip1100)" d="M 0 0 M468.839 367.024 Q465.413 367.024 463.422 369.71 Q461.431 372.372 461.431 377.024 Q461.431 381.677 463.399 384.362 Q465.39 387.024 468.839 387.024 Q472.241 387.024 474.232 384.339 Q476.223 381.654 476.223 377.024 Q476.223 372.418 474.232 369.733 Q472.241 367.024 468.839 367.024 M468.839 363.413 Q474.394 363.413 477.566 367.024 Q480.737 370.635 480.737 377.024 Q480.737 383.39 477.566 387.024 Q474.394 390.635 468.839 390.635 Q463.26 390.635 460.089 387.024 Q456.941 383.39 456.941 377.024 Q456.941 370.635 460.089 367.024 Q463.26 363.413 468.839 363.413 Z" fill="#000000" fill-rule="evenodd" fill-opacity="1" /><path clip-path="url(#clip1100)" d="M 0 0 M506.755 374.316 L506.755 389.964 L502.496 389.964 L502.496 374.455 Q502.496 370.774 501.061 368.946 Q499.626 367.117 496.755 367.117 Q493.306 367.117 491.315 369.316 Q489.325 371.515 489.325 375.311 L489.325 389.964 L485.042 389.964 L485.042 364.038 L489.325 364.038 L489.325 368.066 Q490.852 365.728 492.913 364.571 Q494.996 363.413 497.704 363.413 Q502.172 363.413 504.464 366.191 Q506.755 368.946 506.755 374.316 Z" fill="#000000" fill-rule="evenodd" fill-opacity="1" /><path clip-path="url(#clip1100)" d="M 0 0 M527.75 364.802 L527.75 368.83 Q525.945 367.904 524 367.441 Q522.056 366.978 519.973 366.978 Q516.801 366.978 515.204 367.95 Q513.63 368.923 513.63 370.867 Q513.63 372.348 514.764 373.205 Q515.899 374.038 519.325 374.802 L520.783 375.126 Q525.32 376.098 527.218 377.881 Q529.139 379.64 529.139 382.811 Q529.139 386.422 526.269 388.529 Q523.422 390.635 518.422 390.635 Q516.338 390.635 514.07 390.219 Q511.825 389.825 509.325 389.015 L509.325 384.617 Q511.686 385.844 513.977 386.469 Q516.269 387.071 518.514 387.071 Q521.524 387.071 523.144 386.052 Q524.764 385.01 524.764 383.135 Q524.764 381.399 523.584 380.473 Q522.426 379.547 518.468 378.691 L516.987 378.344 Q513.028 377.51 511.269 375.798 Q509.51 374.061 509.51 371.052 Q509.51 367.395 512.102 365.404 Q514.695 363.413 519.463 363.413 Q521.825 363.413 523.908 363.761 Q525.991 364.108 527.75 364.802 Z" fill="#000000" fill-rule="evenodd" fill-opacity="1" /><path clip-path="url(#clip1100)" d="M 0 0 M537.82 356.677 L537.82 364.038 L546.593 364.038 L546.593 367.348 L537.82 367.348 L537.82 381.422 Q537.82 384.594 538.676 385.497 Q539.556 386.399 542.218 386.399 L546.593 386.399 L546.593 389.964 L542.218 389.964 Q537.287 389.964 535.412 388.135 Q533.537 386.284 533.537 381.422 L533.537 367.348 L530.412 367.348 L530.412 364.038 L533.537 364.038 L533.537 356.677 L537.82 356.677 Z" fill="#000000" fill-rule="evenodd" fill-opacity="1" /><path clip-path="url(#clip1100)" d="M 0 0 M566.084 368.02 Q565.366 367.603 564.51 367.418 Q563.676 367.21 562.658 367.21 Q559.047 367.21 557.102 369.571 Q555.181 371.909 555.181 376.307 L555.181 389.964 L550.898 389.964 L550.898 364.038 L555.181 364.038 L555.181 368.066 Q556.523 365.705 558.676 364.571 Q560.829 363.413 563.908 363.413 Q564.347 363.413 564.88 363.483 Q565.412 363.529 566.06 363.645 L566.084 368.02 Z" fill="#000000" fill-rule="evenodd" fill-opacity="1" /><path clip-path="url(#clip1100)" d="M 0 0 M582.333 376.932 Q577.171 376.932 575.181 378.112 Q573.19 379.293 573.19 382.14 Q573.19 384.409 574.671 385.751 Q576.176 387.071 578.746 387.071 Q582.287 387.071 584.417 384.571 Q586.57 382.047 586.57 377.881 L586.57 376.932 L582.333 376.932 M590.829 375.173 L590.829 389.964 L586.57 389.964 L586.57 386.029 Q585.111 388.39 582.935 389.524 Q580.759 390.635 577.611 390.635 Q573.63 390.635 571.269 388.413 Q568.931 386.168 568.931 382.418 Q568.931 378.043 571.847 375.821 Q574.787 373.598 580.597 373.598 L586.57 373.598 L586.57 373.182 Q586.57 370.242 584.625 368.645 Q582.704 367.024 579.208 367.024 Q576.986 367.024 574.88 367.557 Q572.773 368.089 570.829 369.154 L570.829 365.219 Q573.167 364.316 575.366 363.876 Q577.565 363.413 579.648 363.413 Q585.273 363.413 588.051 366.33 Q590.829 369.247 590.829 375.173 Z" fill="#000000" fill-rule="evenodd" fill-opacity="1" /><path clip-path="url(#clip1100)" d="M 0 0 M595.296 364.038 L599.556 364.038 L599.556 389.964 L595.296 389.964 L595.296 364.038 M595.296 353.946 L599.556 353.946 L599.556 359.339 L595.296 359.339 L595.296 353.946 Z" fill="#000000" fill-rule="evenodd" fill-opacity="1" /><path clip-path="url(#clip1100)" d="M 0 0 M625.574 374.316 L625.574 389.964 L621.315 389.964 L621.315 374.455 Q621.315 370.774 619.88 368.946 Q618.444 367.117 615.574 367.117 Q612.125 367.117 610.134 369.316 Q608.144 371.515 608.144 375.311 L608.144 389.964 L603.861 389.964 L603.861 364.038 L608.144 364.038 L608.144 368.066 Q609.671 365.728 611.731 364.571 Q613.815 363.413 616.523 363.413 Q620.991 363.413 623.282 366.191 Q625.574 368.946 625.574 374.316 Z" fill="#000000" fill-rule="evenodd" fill-opacity="1" /><path clip-path="url(#clip1100)" d="M 0 0 M634.254 356.677 L634.254 364.038 L643.028 364.038 L643.028 367.348 L634.254 367.348 L634.254 381.422 Q634.254 384.594 635.111 385.497 Q635.991 386.399 638.653 386.399 L643.028 386.399 L643.028 389.964 L638.653 389.964 Q633.722 389.964 631.847 388.135 Q629.972 386.284 629.972 381.422 L629.972 367.348 L626.847 367.348 L626.847 364.038 L629.972 364.038 L629.972 356.677 L634.254 356.677 Z" fill="#000000" fill-rule="evenodd" fill-opacity="1" /><path clip-path="url(#clip1100)" d="M 0 0 M677.333 371.33 Q680.689 372.048 682.564 374.316 Q684.463 376.585 684.463 379.918 Q684.463 385.034 680.944 387.834 Q677.426 390.635 670.944 390.635 Q668.768 390.635 666.453 390.196 Q664.162 389.779 661.708 388.922 L661.708 384.409 Q663.652 385.543 665.967 386.122 Q668.282 386.7 670.805 386.7 Q675.203 386.7 677.495 384.964 Q679.81 383.228 679.81 379.918 Q679.81 376.862 677.657 375.149 Q675.527 373.413 671.708 373.413 L667.68 373.413 L667.68 369.571 L671.893 369.571 Q675.342 369.571 677.171 368.205 Q679 366.816 679 364.223 Q679 361.561 677.101 360.149 Q675.226 358.714 671.708 358.714 Q669.787 358.714 667.588 359.131 Q665.389 359.548 662.75 360.427 L662.75 356.261 Q665.412 355.52 667.727 355.149 Q670.064 354.779 672.125 354.779 Q677.449 354.779 680.551 357.21 Q683.652 359.617 683.652 363.737 Q683.652 366.608 682.009 368.598 Q680.365 370.566 677.333 371.33 Z" fill="#000000" fill-rule="evenodd" fill-opacity="1" /></svg>
